<svg width="370" height="278" viewBox="0 0 370 278" fill="none" xmlns="http://www.w3.org/2000/svg">
<rect width="370" height="278" fill="#1E1E1E"/>
<g clip-path="url(#clip0_0_1)">
<rect width="1920" height="5875" transform="translate(-774 -1325)" fill="#FEFCFB"/>
<rect x="-774" y="-326" width="1920" height="724" fill="#F7F8FC"/>
<g filter="url(#filter0_d_0_1)">
<rect x="-400" width="370" height="278" rx="8" fill="white"/>
</g>
<rect width="370" height="278" rx="8" fill="white"/>
<rect x="1" y="1" width="368" height="276" rx="7" stroke="#666666" stroke-opacity="0.08" stroke-width="2"/>
<path d="M0 0C9 21 138.5 14 211.5 115.5C284.5 217 274 266.5 365.5 273.5" stroke="#F5F9FF" stroke-width="4"/>
<path d="M64.048 144.248L59.368 161H55.408L52.264 149.072L48.976 161L45.04 161.024L40.528 144.248H44.128L47.08 157.256L50.488 144.248H54.232L57.448 157.184L60.424 144.248H64.048ZM72.1459 161.216C70.8659 161.216 69.7139 160.936 68.6899 160.376C67.6659 159.8 66.8579 158.992 66.2659 157.952C65.6899 156.912 65.4019 155.712 65.4019 154.352C65.4019 152.992 65.6979 151.792 66.2899 150.752C66.8979 149.712 67.7219 148.912 68.7619 148.352C69.8019 147.776 70.9619 147.488 72.2419 147.488C73.5219 147.488 74.6819 147.776 75.7219 148.352C76.7619 148.912 77.5779 149.712 78.1699 150.752C78.7779 151.792 79.0819 152.992 79.0819 154.352C79.0819 155.712 78.7699 156.912 78.1459 157.952C77.5379 158.992 76.7059 159.8 75.6499 160.376C74.6099 160.936 73.4419 161.216 72.1459 161.216ZM72.1459 158.288C72.7539 158.288 73.3219 158.144 73.8499 157.856C74.3939 157.552 74.8259 157.104 75.1459 156.512C75.4659 155.92 75.6259 155.2 75.6259 154.352C75.6259 153.088 75.2899 152.12 74.6179 151.448C73.9619 150.76 73.1539 150.416 72.1939 150.416C71.2339 150.416 70.4259 150.76 69.7699 151.448C69.1299 152.12 68.8099 153.088 68.8099 154.352C68.8099 155.616 69.1219 156.592 69.7459 157.28C70.3859 157.952 71.1859 158.288 72.1459 158.288ZM84.9066 149.768C85.3386 149.064 85.8986 148.512 86.5866 148.112C87.2906 147.712 88.0906 147.512 88.9866 147.512V151.04H88.0986C87.0426 151.04 86.2426 151.288 85.6986 151.784C85.1706 152.28 84.9066 153.144 84.9066 154.376V161H81.5466V147.704H84.9066V149.768ZM95.1618 150.464V156.896C95.1618 157.344 95.2658 157.672 95.4738 157.88C95.6978 158.072 96.0658 158.168 96.5778 158.168H98.1378V161H96.0258C93.1938 161 91.7778 159.624 91.7778 156.872V150.464H90.1938V147.704H91.7778V144.416H95.1618V147.704H98.1378V150.464H95.1618ZM108.042 147.512C109.05 147.512 109.946 147.736 110.73 148.184C111.514 148.616 112.122 149.264 112.554 150.128C113.002 150.976 113.226 152 113.226 153.2V161H109.866V153.656C109.866 152.6 109.602 151.792 109.074 151.232C108.546 150.656 107.826 150.368 106.914 150.368C105.986 150.368 105.25 150.656 104.706 151.232C104.178 151.792 103.914 152.6 103.914 153.656V161H100.554V143.24H103.914V149.36C104.346 148.784 104.922 148.336 105.642 148.016C106.362 147.68 107.162 147.512 108.042 147.512ZM128.044 161.216C126.764 161.216 125.612 160.936 124.588 160.376C123.564 159.8 122.756 158.992 122.164 157.952C121.588 156.912 121.3 155.712 121.3 154.352C121.3 152.992 121.596 151.792 122.188 150.752C122.796 149.712 123.62 148.912 124.66 148.352C125.7 147.776 126.86 147.488 128.14 147.488C129.42 147.488 130.58 147.776 131.62 148.352C132.66 148.912 133.476 149.712 134.068 150.752C134.676 151.792 134.98 152.992 134.98 154.352C134.98 155.712 134.668 156.912 134.044 157.952C133.436 158.992 132.604 159.8 131.548 160.376C130.508 160.936 129.34 161.216 128.044 161.216ZM128.044 158.288C128.652 158.288 129.22 158.144 129.748 157.856C130.292 157.552 130.724 157.104 131.044 156.512C131.364 155.92 131.524 155.2 131.524 154.352C131.524 153.088 131.188 152.12 130.516 151.448C129.86 150.76 129.052 150.416 128.092 150.416C127.132 150.416 126.324 150.76 125.668 151.448C125.028 152.12 124.708 153.088 124.708 154.352C124.708 155.616 125.02 156.592 125.644 157.28C126.284 157.952 127.084 158.288 128.044 158.288ZM143.541 150.464H141.213V161H137.805V150.464H136.293V147.704H137.805V147.032C137.805 145.4 138.269 144.2 139.197 143.432C140.125 142.664 141.525 142.304 143.397 142.352V145.184C142.581 145.168 142.013 145.304 141.693 145.592C141.373 145.88 141.213 146.4 141.213 147.152V147.704H143.541V150.464ZM169.701 144.248V161H166.341V150.104L161.853 161H159.309L154.797 150.104V161H151.437V144.248H155.253L160.581 156.704L165.909 144.248H169.701ZM178.927 161.216C177.647 161.216 176.495 160.936 175.471 160.376C174.447 159.8 173.639 158.992 173.047 157.952C172.471 156.912 172.183 155.712 172.183 154.352C172.183 152.992 172.479 151.792 173.071 150.752C173.679 149.712 174.503 148.912 175.543 148.352C176.583 147.776 177.743 147.488 179.023 147.488C180.303 147.488 181.463 147.776 182.503 148.352C183.543 148.912 184.359 149.712 184.951 150.752C185.559 151.792 185.863 152.992 185.863 154.352C185.863 155.712 185.551 156.912 184.927 157.952C184.319 158.992 183.487 159.8 182.431 160.376C181.391 160.936 180.223 161.216 178.927 161.216ZM178.927 158.288C179.535 158.288 180.103 158.144 180.631 157.856C181.175 157.552 181.607 157.104 181.927 156.512C182.247 155.92 182.407 155.2 182.407 154.352C182.407 153.088 182.071 152.12 181.399 151.448C180.743 150.76 179.935 150.416 178.975 150.416C178.015 150.416 177.207 150.76 176.551 151.448C175.911 152.12 175.591 153.088 175.591 154.352C175.591 155.616 175.903 156.592 176.527 157.28C177.167 157.952 177.967 158.288 178.927 158.288ZM195.696 147.512C197.28 147.512 198.56 148.016 199.536 149.024C200.512 150.016 201 151.408 201 153.2V161H197.64V153.656C197.64 152.6 197.376 151.792 196.848 151.232C196.32 150.656 195.6 150.368 194.688 150.368C193.76 150.368 193.024 150.656 192.48 151.232C191.952 151.792 191.688 152.6 191.688 153.656V161H188.328V147.704H191.688V149.36C192.136 148.784 192.704 148.336 193.392 148.016C194.096 147.68 194.864 147.512 195.696 147.512ZM216.555 154.064C216.555 154.544 216.523 154.976 216.459 155.36H206.739C206.819 156.32 207.155 157.072 207.747 157.616C208.339 158.16 209.067 158.432 209.931 158.432C211.179 158.432 212.067 157.896 212.595 156.824H216.219C215.835 158.104 215.099 159.16 214.011 159.992C212.923 160.808 211.587 161.216 210.003 161.216C208.723 161.216 207.571 160.936 206.547 160.376C205.539 159.8 204.747 158.992 204.171 157.952C203.611 156.912 203.331 155.712 203.331 154.352C203.331 152.976 203.611 151.768 204.171 150.728C204.731 149.688 205.515 148.888 206.523 148.328C207.531 147.768 208.691 147.488 210.003 147.488C211.267 147.488 212.395 147.76 213.387 148.304C214.395 148.848 215.171 149.624 215.715 150.632C216.275 151.624 216.555 152.768 216.555 154.064ZM213.075 153.104C213.059 152.24 212.747 151.552 212.139 151.04C211.531 150.512 210.787 150.248 209.907 150.248C209.075 150.248 208.371 150.504 207.795 151.016C207.235 151.512 206.891 152.208 206.763 153.104H213.075ZM231.728 147.704L223.496 167.288H219.92L222.8 160.664L217.472 147.704H221.24L224.672 156.992L228.152 147.704H231.728Z" fill="#222222"/>
<path d="M47.824 202.52H42.96L42.064 205H40.528L44.56 193.912H46.24L50.256 205H48.72L47.824 202.52ZM47.408 201.336L45.392 195.704L43.376 201.336H47.408ZM55.5813 197.432H53.7413V205H52.2853V197.432H51.1493V196.232H52.2853V195.608C52.2853 194.627 52.5359 193.912 53.0373 193.464C53.5493 193.005 54.3653 192.776 55.4852 192.776V193.992C54.8453 193.992 54.3919 194.12 54.1253 194.376C53.8693 194.621 53.7413 195.032 53.7413 195.608V196.232H55.5813V197.432ZM59.0549 197.432V202.6C59.0549 203.027 59.1455 203.331 59.3269 203.512C59.5082 203.683 59.8229 203.768 60.2709 203.768H61.3429V205H60.0309C59.2202 205 58.6122 204.813 58.2069 204.44C57.8015 204.067 57.5989 203.453 57.5989 202.6V197.432H56.4629V196.232H57.5989V194.024H59.0549V196.232H61.3429V197.432H59.0549ZM71.107 200.28C71.107 200.557 71.091 200.851 71.059 201.16H64.051C64.1043 202.024 64.3977 202.701 64.931 203.192C65.475 203.672 66.131 203.912 66.899 203.912C67.5283 203.912 68.051 203.768 68.467 203.48C68.8937 203.181 69.1923 202.787 69.363 202.296H70.931C70.6963 203.139 70.227 203.827 69.523 204.36C68.819 204.883 67.9443 205.144 66.899 205.144C66.067 205.144 65.3203 204.957 64.659 204.584C64.0083 204.211 63.4963 203.683 63.123 203C62.7497 202.307 62.563 201.507 62.563 200.6C62.563 199.693 62.7443 198.899 63.107 198.216C63.4697 197.533 63.9763 197.011 64.627 196.648C65.2883 196.275 66.0457 196.088 66.899 196.088C67.731 196.088 68.467 196.269 69.107 196.632C69.747 196.995 70.2377 197.496 70.579 198.136C70.931 198.765 71.107 199.48 71.107 200.28ZM69.603 199.976C69.603 199.421 69.4803 198.947 69.235 198.552C68.9897 198.147 68.6537 197.843 68.227 197.64C67.811 197.427 67.347 197.32 66.835 197.32C66.099 197.32 65.4697 197.555 64.947 198.024C64.435 198.493 64.1417 199.144 64.067 199.976H69.603ZM74.4849 197.656C74.7409 197.155 75.1035 196.765 75.5729 196.488C76.0529 196.211 76.6342 196.072 77.3169 196.072V197.576H76.9329C75.3009 197.576 74.4849 198.461 74.4849 200.232V205H73.0289V196.232H74.4849V197.656ZM86.3673 205.144C85.6953 205.144 85.0926 205.032 84.5593 204.808C84.0259 204.573 83.6046 204.253 83.2953 203.848C82.9859 203.432 82.8153 202.957 82.7833 202.424H84.2873C84.3299 202.861 84.5326 203.219 84.8953 203.496C85.2686 203.773 85.7539 203.912 86.3513 203.912C86.9059 203.912 87.3433 203.789 87.6633 203.544C87.9833 203.299 88.1433 202.989 88.1433 202.616C88.1433 202.232 87.9726 201.949 87.6313 201.768C87.2899 201.576 86.7619 201.389 86.0473 201.208C85.3966 201.037 84.8633 200.867 84.4473 200.696C84.0419 200.515 83.6899 200.253 83.3913 199.912C83.1033 199.56 82.9593 199.101 82.9593 198.536C82.9593 198.088 83.0926 197.677 83.3593 197.304C83.6259 196.931 84.0046 196.637 84.4953 196.424C84.9859 196.2 85.5459 196.088 86.1753 196.088C87.1459 196.088 87.9299 196.333 88.5273 196.824C89.1246 197.315 89.4446 197.987 89.4873 198.84H88.0313C87.9993 198.381 87.8126 198.013 87.4713 197.736C87.1406 197.459 86.6926 197.32 86.1273 197.32C85.6046 197.32 85.1886 197.432 84.8793 197.656C84.5699 197.88 84.4153 198.173 84.4153 198.536C84.4153 198.824 84.5059 199.064 84.6873 199.256C84.8793 199.437 85.1139 199.587 85.3913 199.704C85.6793 199.811 86.0739 199.933 86.5753 200.072C87.2046 200.243 87.7166 200.413 88.1113 200.584C88.5059 200.744 88.8419 200.989 89.1193 201.32C89.4073 201.651 89.5566 202.083 89.5673 202.616C89.5673 203.096 89.4339 203.528 89.1673 203.912C88.9006 204.296 88.5219 204.6 88.0313 204.824C87.5513 205.037 86.9966 205.144 86.3673 205.144ZM99.3986 196.232V205H97.9426V203.704C97.6653 204.152 97.276 204.504 96.7746 204.76C96.284 205.005 95.74 205.128 95.1426 205.128C94.46 205.128 93.8466 204.989 93.3026 204.712C92.7586 204.424 92.3266 203.997 92.0066 203.432C91.6973 202.867 91.5426 202.179 91.5426 201.368V196.232H92.9826V201.176C92.9826 202.04 93.2013 202.707 93.6386 203.176C94.076 203.635 94.6733 203.864 95.4306 203.864C96.2093 203.864 96.8226 203.624 97.2706 203.144C97.7186 202.664 97.9426 201.965 97.9426 201.048V196.232H99.3986ZM101.313 200.6C101.313 199.693 101.494 198.904 101.857 198.232C102.22 197.549 102.721 197.021 103.361 196.648C104.012 196.275 104.753 196.088 105.585 196.088C106.662 196.088 107.548 196.349 108.241 196.872C108.945 197.395 109.409 198.12 109.633 199.048H108.065C107.916 198.515 107.622 198.093 107.185 197.784C106.758 197.475 106.225 197.32 105.585 197.32C104.753 197.32 104.081 197.608 103.569 198.184C103.057 198.749 102.801 199.555 102.801 200.6C102.801 201.656 103.057 202.472 103.569 203.048C104.081 203.624 104.753 203.912 105.585 203.912C106.225 203.912 106.758 203.763 107.185 203.464C107.612 203.165 107.905 202.739 108.065 202.184H109.633C109.398 203.08 108.929 203.8 108.225 204.344C107.521 204.877 106.641 205.144 105.585 205.144C104.753 205.144 104.012 204.957 103.361 204.584C102.721 204.211 102.22 203.683 101.857 203C101.494 202.317 101.313 201.517 101.313 200.6ZM111.032 200.6C111.032 199.693 111.213 198.904 111.576 198.232C111.938 197.549 112.44 197.021 113.08 196.648C113.73 196.275 114.472 196.088 115.304 196.088C116.381 196.088 117.266 196.349 117.96 196.872C118.664 197.395 119.128 198.12 119.352 199.048H117.784C117.634 198.515 117.341 198.093 116.904 197.784C116.477 197.475 115.944 197.32 115.304 197.32C114.472 197.32 113.8 197.608 113.288 198.184C112.776 198.749 112.52 199.555 112.52 200.6C112.52 201.656 112.776 202.472 113.288 203.048C113.8 203.624 114.472 203.912 115.304 203.912C115.944 203.912 116.477 203.763 116.904 203.464C117.33 203.165 117.624 202.739 117.784 202.184H119.352C119.117 203.08 118.648 203.8 117.944 204.344C117.24 204.877 116.36 205.144 115.304 205.144C114.472 205.144 113.73 204.957 113.08 204.584C112.44 204.211 111.938 203.683 111.576 203C111.213 202.317 111.032 201.517 111.032 200.6ZM129.295 200.28C129.295 200.557 129.279 200.851 129.247 201.16H122.239C122.292 202.024 122.585 202.701 123.119 203.192C123.663 203.672 124.319 203.912 125.087 203.912C125.716 203.912 126.239 203.768 126.655 203.48C127.081 203.181 127.38 202.787 127.551 202.296H129.119C128.884 203.139 128.415 203.827 127.711 204.36C127.007 204.883 126.132 205.144 125.087 205.144C124.255 205.144 123.508 204.957 122.847 204.584C122.196 204.211 121.684 203.683 121.311 203C120.937 202.307 120.751 201.507 120.751 200.6C120.751 199.693 120.932 198.899 121.295 198.216C121.657 197.533 122.164 197.011 122.815 196.648C123.476 196.275 124.233 196.088 125.087 196.088C125.919 196.088 126.655 196.269 127.295 196.632C127.935 196.995 128.425 197.496 128.767 198.136C129.119 198.765 129.295 199.48 129.295 200.28ZM127.791 199.976C127.791 199.421 127.668 198.947 127.423 198.552C127.177 198.147 126.841 197.843 126.415 197.64C125.999 197.427 125.535 197.32 125.023 197.32C124.287 197.32 123.657 197.555 123.135 198.024C122.623 198.493 122.329 199.144 122.255 199.976H127.791ZM134.32 205.144C133.648 205.144 133.046 205.032 132.512 204.808C131.979 204.573 131.558 204.253 131.248 203.848C130.939 203.432 130.768 202.957 130.736 202.424H132.24C132.283 202.861 132.486 203.219 132.848 203.496C133.222 203.773 133.707 203.912 134.304 203.912C134.859 203.912 135.296 203.789 135.616 203.544C135.936 203.299 136.096 202.989 136.096 202.616C136.096 202.232 135.926 201.949 135.584 201.768C135.243 201.576 134.715 201.389 134 201.208C133.35 201.037 132.816 200.867 132.4 200.696C131.995 200.515 131.643 200.253 131.344 199.912C131.056 199.56 130.912 199.101 130.912 198.536C130.912 198.088 131.046 197.677 131.312 197.304C131.579 196.931 131.958 196.637 132.448 196.424C132.939 196.2 133.499 196.088 134.128 196.088C135.099 196.088 135.883 196.333 136.48 196.824C137.078 197.315 137.398 197.987 137.44 198.84H135.984C135.952 198.381 135.766 198.013 135.424 197.736C135.094 197.459 134.646 197.32 134.08 197.32C133.558 197.32 133.142 197.432 132.832 197.656C132.523 197.88 132.368 198.173 132.368 198.536C132.368 198.824 132.459 199.064 132.64 199.256C132.832 199.437 133.067 199.587 133.344 199.704C133.632 199.811 134.027 199.933 134.528 200.072C135.158 200.243 135.67 200.413 136.064 200.584C136.459 200.744 136.795 200.989 137.072 201.32C137.36 201.651 137.51 202.083 137.52 202.616C137.52 203.096 137.387 203.528 137.12 203.912C136.854 204.296 136.475 204.6 135.984 204.824C135.504 205.037 134.95 205.144 134.32 205.144ZM142.68 205.144C142.008 205.144 141.405 205.032 140.872 204.808C140.338 204.573 139.917 204.253 139.608 203.848C139.298 203.432 139.128 202.957 139.096 202.424H140.6C140.642 202.861 140.845 203.219 141.208 203.496C141.581 203.773 142.066 203.912 142.664 203.912C143.218 203.912 143.656 203.789 143.976 203.544C144.296 203.299 144.456 202.989 144.456 202.616C144.456 202.232 144.285 201.949 143.944 201.768C143.602 201.576 143.074 201.389 142.36 201.208C141.709 201.037 141.176 200.867 140.76 200.696C140.354 200.515 140.002 200.253 139.704 199.912C139.416 199.56 139.272 199.101 139.272 198.536C139.272 198.088 139.405 197.677 139.672 197.304C139.938 196.931 140.317 196.637 140.808 196.424C141.298 196.2 141.858 196.088 142.488 196.088C143.458 196.088 144.242 196.333 144.84 196.824C145.437 197.315 145.757 197.987 145.8 198.84H144.344C144.312 198.381 144.125 198.013 143.784 197.736C143.453 197.459 143.005 197.32 142.44 197.32C141.917 197.32 141.501 197.432 141.192 197.656C140.882 197.88 140.728 198.173 140.728 198.536C140.728 198.824 140.818 199.064 141 199.256C141.192 199.437 141.426 199.587 141.704 199.704C141.992 199.811 142.386 199.933 142.888 200.072C143.517 200.243 144.029 200.413 144.424 200.584C144.818 200.744 145.154 200.989 145.432 201.32C145.72 201.651 145.869 202.083 145.88 202.616C145.88 203.096 145.746 203.528 145.48 203.912C145.213 204.296 144.834 204.6 144.344 204.824C143.864 205.037 143.309 205.144 142.68 205.144ZM151.503 197.432H149.663V205H148.207V197.432H147.071V196.232H148.207V195.608C148.207 194.627 148.458 193.912 148.959 193.464C149.471 193.005 150.287 192.776 151.407 192.776V193.992C150.767 193.992 150.314 194.12 150.047 194.376C149.791 194.621 149.663 195.032 149.663 195.608V196.232H151.503V197.432ZM160.977 196.232V205H159.521V203.704C159.243 204.152 158.854 204.504 158.353 204.76C157.862 205.005 157.318 205.128 156.721 205.128C156.038 205.128 155.425 204.989 154.881 204.712C154.337 204.424 153.905 203.997 153.585 203.432C153.275 202.867 153.121 202.179 153.121 201.368V196.232H154.561V201.176C154.561 202.04 154.779 202.707 155.217 203.176C155.654 203.635 156.251 203.864 157.009 203.864C157.787 203.864 158.401 203.624 158.849 203.144C159.297 202.664 159.521 201.965 159.521 201.048V196.232H160.977ZM164.891 193.16V205H163.435V193.16H164.891ZM171.094 200.584C171.094 199.688 171.276 198.904 171.638 198.232C172.001 197.549 172.497 197.021 173.126 196.648C173.766 196.275 174.476 196.088 175.254 196.088C176.022 196.088 176.689 196.253 177.254 196.584C177.82 196.915 178.241 197.331 178.518 197.832V196.232H179.99V205H178.518V203.368C178.23 203.88 177.798 204.307 177.222 204.648C176.657 204.979 175.996 205.144 175.238 205.144C174.46 205.144 173.756 204.952 173.126 204.568C172.497 204.184 172.001 203.645 171.638 202.952C171.276 202.259 171.094 201.469 171.094 200.584ZM178.518 200.6C178.518 199.939 178.385 199.363 178.118 198.872C177.852 198.381 177.489 198.008 177.03 197.752C176.582 197.485 176.086 197.352 175.542 197.352C174.998 197.352 174.502 197.48 174.054 197.736C173.606 197.992 173.249 198.365 172.982 198.856C172.716 199.347 172.582 199.923 172.582 200.584C172.582 201.256 172.716 201.843 172.982 202.344C173.249 202.835 173.606 203.213 174.054 203.48C174.502 203.736 174.998 203.864 175.542 203.864C176.086 203.864 176.582 203.736 177.03 203.48C177.489 203.213 177.852 202.835 178.118 202.344C178.385 201.843 178.518 201.261 178.518 200.6ZM181.907 200.6C181.907 199.693 182.088 198.904 182.451 198.232C182.813 197.549 183.315 197.021 183.955 196.648C184.605 196.275 185.347 196.088 186.179 196.088C187.256 196.088 188.141 196.349 188.835 196.872C189.539 197.395 190.003 198.12 190.227 199.048H188.659C188.509 198.515 188.216 198.093 187.779 197.784C187.352 197.475 186.819 197.32 186.179 197.32C185.347 197.32 184.675 197.608 184.163 198.184C183.651 198.749 183.395 199.555 183.395 200.6C183.395 201.656 183.651 202.472 184.163 203.048C184.675 203.624 185.347 203.912 186.179 203.912C186.819 203.912 187.352 203.763 187.779 203.464C188.205 203.165 188.499 202.739 188.659 202.184H190.227C189.992 203.08 189.523 203.8 188.819 204.344C188.115 204.877 187.235 205.144 186.179 205.144C185.347 205.144 184.605 204.957 183.955 204.584C183.315 204.211 182.813 203.683 182.451 203C182.088 202.317 181.907 201.517 181.907 200.6ZM191.626 200.6C191.626 199.693 191.807 198.904 192.17 198.232C192.532 197.549 193.034 197.021 193.674 196.648C194.324 196.275 195.066 196.088 195.898 196.088C196.975 196.088 197.86 196.349 198.554 196.872C199.258 197.395 199.722 198.12 199.946 199.048H198.378C198.228 198.515 197.935 198.093 197.498 197.784C197.071 197.475 196.538 197.32 195.898 197.32C195.066 197.32 194.394 197.608 193.882 198.184C193.37 198.749 193.114 199.555 193.114 200.6C193.114 201.656 193.37 202.472 193.882 203.048C194.394 203.624 195.066 203.912 195.898 203.912C196.538 203.912 197.071 203.763 197.498 203.464C197.924 203.165 198.218 202.739 198.378 202.184H199.946C199.711 203.08 199.242 203.8 198.538 204.344C197.834 204.877 196.954 205.144 195.898 205.144C195.066 205.144 194.324 204.957 193.674 204.584C193.034 204.211 192.532 203.683 192.17 203C191.807 202.317 191.626 201.517 191.626 200.6ZM209.888 200.28C209.888 200.557 209.872 200.851 209.84 201.16H202.832C202.886 202.024 203.179 202.701 203.712 203.192C204.256 203.672 204.912 203.912 205.68 203.912C206.31 203.912 206.832 203.768 207.248 203.48C207.675 203.181 207.974 202.787 208.144 202.296H209.712C209.478 203.139 209.008 203.827 208.304 204.36C207.6 204.883 206.726 205.144 205.68 205.144C204.848 205.144 204.102 204.957 203.44 204.584C202.79 204.211 202.278 203.683 201.904 203C201.531 202.307 201.344 201.507 201.344 200.6C201.344 199.693 201.526 198.899 201.888 198.216C202.251 197.533 202.758 197.011 203.408 196.648C204.07 196.275 204.827 196.088 205.68 196.088C206.512 196.088 207.248 196.269 207.888 196.632C208.528 196.995 209.019 197.496 209.36 198.136C209.712 198.765 209.888 199.48 209.888 200.28ZM208.384 199.976C208.384 199.421 208.262 198.947 208.016 198.552C207.771 198.147 207.435 197.843 207.008 197.64C206.592 197.427 206.128 197.32 205.616 197.32C204.88 197.32 204.251 197.555 203.728 198.024C203.216 198.493 202.923 199.144 202.848 199.976H208.384ZM214.914 205.144C214.242 205.144 213.639 205.032 213.106 204.808C212.573 204.573 212.151 204.253 211.842 203.848C211.533 203.432 211.362 202.957 211.33 202.424H212.834C212.877 202.861 213.079 203.219 213.442 203.496C213.815 203.773 214.301 203.912 214.898 203.912C215.453 203.912 215.89 203.789 216.21 203.544C216.53 203.299 216.69 202.989 216.69 202.616C216.69 202.232 216.519 201.949 216.178 201.768C215.837 201.576 215.309 201.389 214.594 201.208C213.943 201.037 213.41 200.867 212.994 200.696C212.589 200.515 212.237 200.253 211.938 199.912C211.65 199.56 211.506 199.101 211.506 198.536C211.506 198.088 211.639 197.677 211.906 197.304C212.173 196.931 212.551 196.637 213.042 196.424C213.533 196.2 214.093 196.088 214.722 196.088C215.693 196.088 216.477 196.333 217.074 196.824C217.671 197.315 217.991 197.987 218.034 198.84H216.578C216.546 198.381 216.359 198.013 216.018 197.736C215.687 197.459 215.239 197.32 214.674 197.32C214.151 197.32 213.735 197.432 213.426 197.656C213.117 197.88 212.962 198.173 212.962 198.536C212.962 198.824 213.053 199.064 213.234 199.256C213.426 199.437 213.661 199.587 213.938 199.704C214.226 199.811 214.621 199.933 215.122 200.072C215.751 200.243 216.263 200.413 216.658 200.584C217.053 200.744 217.389 200.989 217.666 201.32C217.954 201.651 218.103 202.083 218.114 202.616C218.114 203.096 217.981 203.528 217.714 203.912C217.447 204.296 217.069 204.6 216.578 204.824C216.098 205.037 215.543 205.144 214.914 205.144ZM223.274 205.144C222.602 205.144 221.999 205.032 221.466 204.808C220.932 204.573 220.511 204.253 220.202 203.848C219.892 203.432 219.722 202.957 219.69 202.424H221.194C221.236 202.861 221.439 203.219 221.802 203.496C222.175 203.773 222.66 203.912 223.258 203.912C223.812 203.912 224.25 203.789 224.57 203.544C224.89 203.299 225.05 202.989 225.05 202.616C225.05 202.232 224.879 201.949 224.538 201.768C224.196 201.576 223.668 201.389 222.954 201.208C222.303 201.037 221.77 200.867 221.354 200.696C220.948 200.515 220.596 200.253 220.298 199.912C220.01 199.56 219.866 199.101 219.866 198.536C219.866 198.088 219.999 197.677 220.266 197.304C220.532 196.931 220.911 196.637 221.402 196.424C221.892 196.2 222.452 196.088 223.082 196.088C224.052 196.088 224.836 196.333 225.434 196.824C226.031 197.315 226.351 197.987 226.394 198.84H224.938C224.906 198.381 224.719 198.013 224.378 197.736C224.047 197.459 223.599 197.32 223.034 197.32C222.511 197.32 222.095 197.432 221.786 197.656C221.476 197.88 221.322 198.173 221.322 198.536C221.322 198.824 221.412 199.064 221.594 199.256C221.786 199.437 222.02 199.587 222.298 199.704C222.586 199.811 222.98 199.933 223.482 200.072C224.111 200.243 224.623 200.413 225.018 200.584C225.412 200.744 225.748 200.989 226.026 201.32C226.314 201.651 226.463 202.083 226.474 202.616C226.474 203.096 226.34 203.528 226.074 203.912C225.807 204.296 225.428 204.6 224.938 204.824C224.458 205.037 223.903 205.144 223.274 205.144ZM234.571 197.432V202.6C234.571 203.027 234.661 203.331 234.843 203.512C235.024 203.683 235.339 203.768 235.786 203.768H236.859V205H235.547C234.736 205 234.128 204.813 233.723 204.44C233.317 204.067 233.115 203.453 233.115 202.6V197.432H231.979V196.232H233.115V194.024H234.571V196.232H236.859V197.432H234.571ZM242.975 196.072C243.636 196.072 244.233 196.216 244.767 196.504C245.3 196.781 245.716 197.203 246.015 197.768C246.324 198.333 246.479 199.021 246.479 199.832V205H245.039V200.04C245.039 199.165 244.82 198.499 244.383 198.04C243.945 197.571 243.348 197.336 242.591 197.336C241.823 197.336 241.209 197.576 240.751 198.056C240.303 198.536 240.079 199.235 240.079 200.152V205H238.623V193.16H240.079V197.48C240.367 197.032 240.761 196.685 241.263 196.44C241.775 196.195 242.345 196.072 242.975 196.072ZM256.857 200.28C256.857 200.557 256.841 200.851 256.809 201.16H249.801C249.854 202.024 250.148 202.701 250.681 203.192C251.225 203.672 251.881 203.912 252.649 203.912C253.278 203.912 253.801 203.768 254.217 203.48C254.644 203.181 254.942 202.787 255.113 202.296H256.681C256.446 203.139 255.977 203.827 255.273 204.36C254.569 204.883 253.694 205.144 252.649 205.144C251.817 205.144 251.07 204.957 250.409 204.584C249.758 204.211 249.246 203.683 248.873 203C248.5 202.307 248.313 201.507 248.313 200.6C248.313 199.693 248.494 198.899 248.857 198.216C249.22 197.533 249.726 197.011 250.377 196.648C251.038 196.275 251.796 196.088 252.649 196.088C253.481 196.088 254.217 196.269 254.857 196.632C255.497 196.995 255.988 197.496 256.329 198.136C256.681 198.765 256.857 199.48 256.857 200.28ZM255.353 199.976C255.353 199.421 255.23 198.947 254.985 198.552C254.74 198.147 254.404 197.843 253.977 197.64C253.561 197.427 253.097 197.32 252.585 197.32C251.849 197.32 251.22 197.555 250.697 198.024C250.185 198.493 249.892 199.144 249.817 199.976H255.353ZM263.051 196.072C264.118 196.072 264.982 196.397 265.643 197.048C266.304 197.688 266.635 198.616 266.635 199.832V205H265.195V200.04C265.195 199.165 264.976 198.499 264.539 198.04C264.102 197.571 263.504 197.336 262.747 197.336C261.979 197.336 261.366 197.576 260.907 198.056C260.459 198.536 260.235 199.235 260.235 200.152V205H258.779V196.232H260.235V197.48C260.523 197.032 260.912 196.685 261.403 196.44C261.904 196.195 262.454 196.072 263.051 196.072ZM274.735 197.864C275.034 197.341 275.471 196.915 276.047 196.584C276.623 196.253 277.279 196.088 278.015 196.088C278.804 196.088 279.514 196.275 280.143 196.648C280.772 197.021 281.268 197.549 281.631 198.232C281.994 198.904 282.175 199.688 282.175 200.584C282.175 201.469 281.994 202.259 281.631 202.952C281.268 203.645 280.767 204.184 280.127 204.568C279.498 204.952 278.794 205.144 278.015 205.144C277.258 205.144 276.591 204.979 276.015 204.648C275.45 204.317 275.023 203.896 274.735 203.384V205H273.279V193.16H274.735V197.864ZM280.687 200.584C280.687 199.923 280.554 199.347 280.287 198.856C280.02 198.365 279.658 197.992 279.199 197.736C278.751 197.48 278.255 197.352 277.711 197.352C277.178 197.352 276.682 197.485 276.223 197.752C275.775 198.008 275.412 198.387 275.135 198.888C274.868 199.379 274.735 199.949 274.735 200.6C274.735 201.261 274.868 201.843 275.135 202.344C275.412 202.835 275.775 203.213 276.223 203.48C276.682 203.736 277.178 203.864 277.711 203.864C278.255 203.864 278.751 203.736 279.199 203.48C279.658 203.213 280.02 202.835 280.287 202.344C280.554 201.843 280.687 201.256 280.687 200.584ZM287.915 205.144C287.094 205.144 286.347 204.957 285.675 204.584C285.014 204.211 284.491 203.683 284.107 203C283.734 202.307 283.547 201.507 283.547 200.6C283.547 199.704 283.739 198.915 284.123 198.232C284.518 197.539 285.051 197.011 285.723 196.648C286.395 196.275 287.147 196.088 287.979 196.088C288.811 196.088 289.563 196.275 290.235 196.648C290.907 197.011 291.435 197.533 291.819 198.216C292.214 198.899 292.411 199.693 292.411 200.6C292.411 201.507 292.209 202.307 291.803 203C291.409 203.683 290.87 204.211 290.187 204.584C289.505 204.957 288.747 205.144 287.915 205.144ZM287.915 203.864C288.438 203.864 288.929 203.741 289.387 203.496C289.846 203.251 290.214 202.883 290.491 202.392C290.779 201.901 290.923 201.304 290.923 200.6C290.923 199.896 290.785 199.299 290.507 198.808C290.23 198.317 289.867 197.955 289.419 197.72C288.971 197.475 288.486 197.352 287.963 197.352C287.43 197.352 286.939 197.475 286.491 197.72C286.054 197.955 285.702 198.317 285.435 198.808C285.169 199.299 285.035 199.896 285.035 200.6C285.035 201.315 285.163 201.917 285.419 202.408C285.686 202.899 286.038 203.267 286.475 203.512C286.913 203.747 287.393 203.864 287.915 203.864ZM298.15 205.144C297.328 205.144 296.582 204.957 295.91 204.584C295.248 204.211 294.726 203.683 294.342 203C293.968 202.307 293.782 201.507 293.782 200.6C293.782 199.704 293.974 198.915 294.358 198.232C294.752 197.539 295.286 197.011 295.958 196.648C296.63 196.275 297.382 196.088 298.214 196.088C299.046 196.088 299.798 196.275 300.47 196.648C301.142 197.011 301.67 197.533 302.054 198.216C302.448 198.899 302.646 199.693 302.646 200.6C302.646 201.507 302.443 202.307 302.038 203C301.643 203.683 301.104 204.211 300.422 204.584C299.739 204.957 298.982 205.144 298.15 205.144ZM298.15 203.864C298.672 203.864 299.163 203.741 299.622 203.496C300.08 203.251 300.448 202.883 300.726 202.392C301.014 201.901 301.158 201.304 301.158 200.6C301.158 199.896 301.019 199.299 300.742 198.808C300.464 198.317 300.102 197.955 299.654 197.72C299.206 197.475 298.72 197.352 298.198 197.352C297.664 197.352 297.174 197.475 296.726 197.72C296.288 197.955 295.936 198.317 295.67 198.808C295.403 199.299 295.27 199.896 295.27 200.6C295.27 201.315 295.398 201.917 295.654 202.408C295.92 202.899 296.272 203.267 296.71 203.512C297.147 203.747 297.627 203.864 298.15 203.864ZM309.456 205L306.016 201.128V205H304.56V193.16H306.016V200.12L309.392 196.232H311.424L307.296 200.6L311.44 205H309.456ZM44.8 223.432H42.96V231H41.504V223.432H40.368V222.232H41.504V221.608C41.504 220.627 41.7547 219.912 42.256 219.464C42.768 219.005 43.584 218.776 44.704 218.776V219.992C44.064 219.992 43.6107 220.12 43.344 220.376C43.088 220.621 42.96 221.032 42.96 221.608V222.232H44.8V223.432ZM47.9536 223.656C48.2096 223.155 48.5723 222.765 49.0416 222.488C49.5216 222.211 50.103 222.072 50.7856 222.072V223.576H50.4016C48.7696 223.576 47.9536 224.461 47.9536 226.232V231H46.4976V222.232H47.9536V223.656ZM56.2904 231.144C55.469 231.144 54.7224 230.957 54.0504 230.584C53.389 230.211 52.8664 229.683 52.4824 229C52.109 228.307 51.9224 227.507 51.9224 226.6C51.9224 225.704 52.1144 224.915 52.4984 224.232C52.893 223.539 53.4264 223.011 54.0984 222.648C54.7704 222.275 55.5224 222.088 56.3544 222.088C57.1864 222.088 57.9384 222.275 58.6104 222.648C59.2824 223.011 59.8104 223.533 60.1944 224.216C60.589 224.899 60.7864 225.693 60.7864 226.6C60.7864 227.507 60.5837 228.307 60.1784 229C59.7837 229.683 59.245 230.211 58.5624 230.584C57.8797 230.957 57.1224 231.144 56.2904 231.144ZM56.2904 229.864C56.813 229.864 57.3037 229.741 57.7624 229.496C58.221 229.251 58.589 228.883 58.8664 228.392C59.1544 227.901 59.2984 227.304 59.2984 226.6C59.2984 225.896 59.1597 225.299 58.8824 224.808C58.605 224.317 58.2424 223.955 57.7944 223.72C57.3464 223.475 56.861 223.352 56.3384 223.352C55.805 223.352 55.3144 223.475 54.8664 223.72C54.429 223.955 54.077 224.317 53.8104 224.808C53.5437 225.299 53.4104 225.896 53.4104 226.6C53.4104 227.315 53.5384 227.917 53.7944 228.408C54.061 228.899 54.413 229.267 54.8504 229.512C55.2877 229.747 55.7677 229.864 56.2904 229.864ZM73.2448 222.072C73.9274 222.072 74.5354 222.216 75.0688 222.504C75.6021 222.781 76.0234 223.203 76.3328 223.768C76.6421 224.333 76.7968 225.021 76.7968 225.832V231H75.3568V226.04C75.3568 225.165 75.1381 224.499 74.7008 224.04C74.2741 223.571 73.6928 223.336 72.9568 223.336C72.1994 223.336 71.5968 223.581 71.1488 224.072C70.7008 224.552 70.4768 225.251 70.4768 226.168V231H69.0368V226.04C69.0368 225.165 68.8181 224.499 68.3808 224.04C67.9541 223.571 67.3728 223.336 66.6368 223.336C65.8794 223.336 65.2768 223.581 64.8288 224.072C64.3808 224.552 64.1568 225.251 64.1568 226.168V231H62.7008V222.232H64.1568V223.496C64.4448 223.037 64.8288 222.685 65.3088 222.44C65.7994 222.195 66.3381 222.072 66.9248 222.072C67.6608 222.072 68.3114 222.237 68.8768 222.568C69.4421 222.899 69.8634 223.384 70.1408 224.024C70.3861 223.405 70.7914 222.925 71.3568 222.584C71.9221 222.243 72.5514 222.072 73.2448 222.072ZM91.4508 226.28C91.4508 226.557 91.4348 226.851 91.4028 227.16H84.3948C84.4481 228.024 84.7414 228.701 85.2748 229.192C85.8188 229.672 86.4748 229.912 87.2428 229.912C87.8721 229.912 88.3948 229.768 88.8108 229.48C89.2374 229.181 89.5361 228.787 89.7068 228.296H91.2748C91.0401 229.139 90.5708 229.827 89.8668 230.36C89.1628 230.883 88.2881 231.144 87.2428 231.144C86.4108 231.144 85.6641 230.957 85.0028 230.584C84.3521 230.211 83.8401 229.683 83.4668 229C83.0934 228.307 82.9068 227.507 82.9068 226.6C82.9068 225.693 83.0881 224.899 83.4508 224.216C83.8134 223.533 84.3201 223.011 84.9708 222.648C85.6321 222.275 86.3894 222.088 87.2428 222.088C88.0748 222.088 88.8108 222.269 89.4508 222.632C90.0908 222.995 90.5814 223.496 90.9228 224.136C91.2748 224.765 91.4508 225.48 91.4508 226.28ZM89.9468 225.976C89.9468 225.421 89.8241 224.947 89.5788 224.552C89.3334 224.147 88.9974 223.843 88.5708 223.64C88.1548 223.427 87.6908 223.32 87.1788 223.32C86.4428 223.32 85.8134 223.555 85.2908 224.024C84.7788 224.493 84.4854 225.144 84.4108 225.976H89.9468ZM97.9486 231L95.8686 227.736L93.8686 231H92.3486L95.1806 226.648L92.3486 222.232H93.9966L96.0766 225.48L98.0606 222.232H99.5806L96.7646 226.568L99.5966 231H97.9486ZM100.485 226.6C100.485 225.693 100.666 224.904 101.029 224.232C101.392 223.549 101.893 223.021 102.533 222.648C103.184 222.275 103.925 222.088 104.757 222.088C105.834 222.088 106.72 222.349 107.413 222.872C108.117 223.395 108.581 224.12 108.805 225.048H107.237C107.088 224.515 106.794 224.093 106.357 223.784C105.93 223.475 105.397 223.32 104.757 223.32C103.925 223.32 103.253 223.608 102.741 224.184C102.229 224.749 101.973 225.555 101.973 226.6C101.973 227.656 102.229 228.472 102.741 229.048C103.253 229.624 103.925 229.912 104.757 229.912C105.397 229.912 105.93 229.763 106.357 229.464C106.784 229.165 107.077 228.739 107.237 228.184H108.805C108.57 229.08 108.101 229.8 107.397 230.344C106.693 230.877 105.813 231.144 104.757 231.144C103.925 231.144 103.184 230.957 102.533 230.584C101.893 230.211 101.392 229.683 101.029 229C100.666 228.317 100.485 227.517 100.485 226.6ZM112.204 219.16V231H110.748V219.16H112.204ZM122.461 222.232V231H121.005V229.704C120.728 230.152 120.338 230.504 119.837 230.76C119.346 231.005 118.802 231.128 118.205 231.128C117.522 231.128 116.909 230.989 116.365 230.712C115.821 230.424 115.389 229.997 115.069 229.432C114.76 228.867 114.605 228.179 114.605 227.368V222.232H116.045V227.176C116.045 228.04 116.264 228.707 116.701 229.176C117.138 229.635 117.736 229.864 118.493 229.864C119.272 229.864 119.885 229.624 120.333 229.144C120.781 228.664 121.005 227.965 121.005 227.048V222.232H122.461ZM128.024 231.144C127.352 231.144 126.749 231.032 126.216 230.808C125.682 230.573 125.261 230.253 124.952 229.848C124.642 229.432 124.472 228.957 124.44 228.424H125.944C125.986 228.861 126.189 229.219 126.552 229.496C126.925 229.773 127.41 229.912 128.008 229.912C128.562 229.912 129 229.789 129.32 229.544C129.64 229.299 129.8 228.989 129.8 228.616C129.8 228.232 129.629 227.949 129.288 227.768C128.946 227.576 128.418 227.389 127.704 227.208C127.053 227.037 126.52 226.867 126.104 226.696C125.698 226.515 125.346 226.253 125.048 225.912C124.76 225.56 124.616 225.101 124.616 224.536C124.616 224.088 124.749 223.677 125.016 223.304C125.282 222.931 125.661 222.637 126.152 222.424C126.642 222.2 127.202 222.088 127.832 222.088C128.802 222.088 129.586 222.333 130.184 222.824C130.781 223.315 131.101 223.987 131.144 224.84H129.688C129.656 224.381 129.469 224.013 129.128 223.736C128.797 223.459 128.349 223.32 127.784 223.32C127.261 223.32 126.845 223.432 126.536 223.656C126.226 223.88 126.072 224.173 126.072 224.536C126.072 224.824 126.162 225.064 126.344 225.256C126.536 225.437 126.77 225.587 127.048 225.704C127.336 225.811 127.73 225.933 128.232 226.072C128.861 226.243 129.373 226.413 129.768 226.584C130.162 226.744 130.498 226.989 130.776 227.32C131.064 227.651 131.213 228.083 131.224 228.616C131.224 229.096 131.09 229.528 130.824 229.912C130.557 230.296 130.178 230.6 129.688 230.824C129.208 231.037 128.653 231.144 128.024 231.144ZM134.031 220.808C133.754 220.808 133.519 220.712 133.327 220.52C133.135 220.328 133.039 220.093 133.039 219.816C133.039 219.539 133.135 219.304 133.327 219.112C133.519 218.92 133.754 218.824 134.031 218.824C134.298 218.824 134.522 218.92 134.703 219.112C134.895 219.304 134.991 219.539 134.991 219.816C134.991 220.093 134.895 220.328 134.703 220.52C134.522 220.712 134.298 220.808 134.031 220.808ZM134.735 222.232V231H133.279V222.232H134.735ZM140.48 229.656L143.2 222.232H144.752L141.312 231H139.616L136.176 222.232H137.744L140.48 229.656ZM154.185 226.28C154.185 226.557 154.169 226.851 154.137 227.16H147.129C147.182 228.024 147.476 228.701 148.009 229.192C148.553 229.672 149.209 229.912 149.977 229.912C150.606 229.912 151.129 229.768 151.545 229.48C151.972 229.181 152.27 228.787 152.441 228.296H154.009C153.774 229.139 153.305 229.827 152.601 230.36C151.897 230.883 151.022 231.144 149.977 231.144C149.145 231.144 148.398 230.957 147.737 230.584C147.086 230.211 146.574 229.683 146.201 229C145.828 228.307 145.641 227.507 145.641 226.6C145.641 225.693 145.822 224.899 146.185 224.216C146.548 223.533 147.054 223.011 147.705 222.648C148.366 222.275 149.124 222.088 149.977 222.088C150.809 222.088 151.545 222.269 152.185 222.632C152.825 222.995 153.316 223.496 153.657 224.136C154.009 224.765 154.185 225.48 154.185 226.28ZM152.681 225.976C152.681 225.421 152.558 224.947 152.313 224.552C152.068 224.147 151.732 223.843 151.305 223.64C150.889 223.427 150.425 223.32 149.913 223.32C149.177 223.32 148.548 223.555 148.025 224.024C147.513 224.493 147.22 225.144 147.145 225.976H152.681ZM159.829 226.584C159.829 225.688 160.01 224.904 160.373 224.232C160.735 223.549 161.231 223.021 161.861 222.648C162.501 222.275 163.215 222.088 164.005 222.088C164.687 222.088 165.322 222.248 165.909 222.568C166.495 222.877 166.943 223.288 167.253 223.8V219.16H168.725V231H167.253V229.352C166.965 229.875 166.538 230.307 165.973 230.648C165.407 230.979 164.746 231.144 163.989 231.144C163.21 231.144 162.501 230.952 161.861 230.568C161.231 230.184 160.735 229.645 160.373 228.952C160.01 228.259 159.829 227.469 159.829 226.584ZM167.253 226.6C167.253 225.939 167.119 225.363 166.853 224.872C166.586 224.381 166.223 224.008 165.765 223.752C165.317 223.485 164.821 223.352 164.277 223.352C163.733 223.352 163.237 223.48 162.789 223.736C162.341 223.992 161.983 224.365 161.717 224.856C161.45 225.347 161.317 225.923 161.317 226.584C161.317 227.256 161.45 227.843 161.717 228.344C161.983 228.835 162.341 229.213 162.789 229.48C163.237 229.736 163.733 229.864 164.277 229.864C164.821 229.864 165.317 229.736 165.765 229.48C166.223 229.213 166.586 228.835 166.853 228.344C167.119 227.843 167.253 227.261 167.253 226.6ZM179.185 226.28C179.185 226.557 179.169 226.851 179.137 227.16H172.129C172.182 228.024 172.476 228.701 173.009 229.192C173.553 229.672 174.209 229.912 174.977 229.912C175.606 229.912 176.129 229.768 176.545 229.48C176.972 229.181 177.27 228.787 177.441 228.296H179.009C178.774 229.139 178.305 229.827 177.601 230.36C176.897 230.883 176.022 231.144 174.977 231.144C174.145 231.144 173.398 230.957 172.737 230.584C172.086 230.211 171.574 229.683 171.201 229C170.828 228.307 170.641 227.507 170.641 226.6C170.641 225.693 170.822 224.899 171.185 224.216C171.548 223.533 172.054 223.011 172.705 222.648C173.366 222.275 174.124 222.088 174.977 222.088C175.809 222.088 176.545 222.269 177.185 222.632C177.825 222.995 178.316 223.496 178.657 224.136C179.009 224.765 179.185 225.48 179.185 226.28ZM177.681 225.976C177.681 225.421 177.558 224.947 177.313 224.552C177.068 224.147 176.732 223.843 176.305 223.64C175.889 223.427 175.425 223.32 174.913 223.32C174.177 223.32 173.548 223.555 173.025 224.024C172.513 224.493 172.22 225.144 172.145 225.976H177.681ZM180.563 226.584C180.563 225.688 180.744 224.904 181.107 224.232C181.47 223.549 181.966 223.021 182.595 222.648C183.235 222.275 183.944 222.088 184.723 222.088C185.491 222.088 186.158 222.253 186.723 222.584C187.288 222.915 187.71 223.331 187.987 223.832V222.232H189.459V231H187.987V229.368C187.699 229.88 187.267 230.307 186.691 230.648C186.126 230.979 185.464 231.144 184.707 231.144C183.928 231.144 183.224 230.952 182.595 230.568C181.966 230.184 181.47 229.645 181.107 228.952C180.744 228.259 180.563 227.469 180.563 226.584ZM187.987 226.6C187.987 225.939 187.854 225.363 187.587 224.872C187.32 224.381 186.958 224.008 186.499 223.752C186.051 223.485 185.555 223.352 185.011 223.352C184.467 223.352 183.971 223.48 183.523 223.736C183.075 223.992 182.718 224.365 182.451 224.856C182.184 225.347 182.051 225.923 182.051 226.584C182.051 227.256 182.184 227.843 182.451 228.344C182.718 228.835 183.075 229.213 183.523 229.48C183.971 229.736 184.467 229.864 185.011 229.864C185.555 229.864 186.051 229.736 186.499 229.48C186.958 229.213 187.32 228.835 187.587 228.344C187.854 227.843 187.987 227.261 187.987 226.6ZM193.376 219.16V231H191.92V219.16H193.376ZM198.961 231.144C198.289 231.144 197.686 231.032 197.153 230.808C196.62 230.573 196.198 230.253 195.889 229.848C195.58 229.432 195.409 228.957 195.377 228.424H196.881C196.924 228.861 197.126 229.219 197.489 229.496C197.862 229.773 198.348 229.912 198.945 229.912C199.5 229.912 199.937 229.789 200.257 229.544C200.577 229.299 200.737 228.989 200.737 228.616C200.737 228.232 200.566 227.949 200.225 227.768C199.884 227.576 199.356 227.389 198.641 227.208C197.99 227.037 197.457 226.867 197.041 226.696C196.636 226.515 196.284 226.253 195.985 225.912C195.697 225.56 195.553 225.101 195.553 224.536C195.553 224.088 195.686 223.677 195.953 223.304C196.22 222.931 196.598 222.637 197.089 222.424C197.58 222.2 198.14 222.088 198.769 222.088C199.74 222.088 200.524 222.333 201.121 222.824C201.718 223.315 202.038 223.987 202.081 224.84H200.625C200.593 224.381 200.406 224.013 200.065 223.736C199.734 223.459 199.286 223.32 198.721 223.32C198.198 223.32 197.782 223.432 197.473 223.656C197.164 223.88 197.009 224.173 197.009 224.536C197.009 224.824 197.1 225.064 197.281 225.256C197.473 225.437 197.708 225.587 197.985 225.704C198.273 225.811 198.668 225.933 199.169 226.072C199.798 226.243 200.31 226.413 200.705 226.584C201.1 226.744 201.436 226.989 201.713 227.32C202.001 227.651 202.15 228.083 202.161 228.616C202.161 229.096 202.028 229.528 201.761 229.912C201.494 230.296 201.116 230.6 200.625 230.824C200.145 231.037 199.59 231.144 198.961 231.144ZM217.042 231L215.586 229.528C215.042 230.093 214.461 230.515 213.842 230.792C213.223 231.059 212.525 231.192 211.746 231.192C210.978 231.192 210.295 231.053 209.698 230.776C209.111 230.499 208.653 230.104 208.322 229.592C208.002 229.08 207.842 228.483 207.842 227.8C207.842 227.021 208.061 226.339 208.498 225.752C208.946 225.155 209.602 224.685 210.466 224.344C210.125 223.939 209.879 223.565 209.73 223.224C209.581 222.883 209.506 222.509 209.506 222.104C209.506 221.635 209.623 221.213 209.858 220.84C210.103 220.456 210.45 220.157 210.898 219.944C211.346 219.731 211.863 219.624 212.45 219.624C213.026 219.624 213.527 219.736 213.954 219.96C214.381 220.184 214.701 220.499 214.914 220.904C215.127 221.299 215.223 221.741 215.202 222.232H213.746C213.757 221.795 213.634 221.453 213.378 221.208C213.122 220.952 212.791 220.824 212.386 220.824C211.959 220.824 211.613 220.947 211.346 221.192C211.09 221.427 210.962 221.731 210.962 222.104C210.962 222.424 211.047 222.733 211.218 223.032C211.399 223.331 211.698 223.699 212.114 224.136L215.442 227.48L215.73 227.032L216.818 225.208H218.386L217.074 227.48C216.893 227.8 216.679 228.136 216.434 228.488L218.946 231H217.042ZM211.746 229.944C212.322 229.944 212.839 229.832 213.298 229.608C213.767 229.384 214.21 229.037 214.626 228.568L211.346 225.272C209.981 225.795 209.298 226.621 209.298 227.752C209.298 228.381 209.522 228.904 209.97 229.32C210.429 229.736 211.021 229.944 211.746 229.944ZM226.032 223.848C226.32 223.347 226.746 222.931 227.312 222.6C227.888 222.259 228.554 222.088 229.312 222.088C230.09 222.088 230.794 222.275 231.424 222.648C232.064 223.021 232.565 223.549 232.928 224.232C233.29 224.904 233.472 225.688 233.472 226.584C233.472 227.469 233.29 228.259 232.928 228.952C232.565 229.645 232.064 230.184 231.424 230.568C230.794 230.952 230.09 231.144 229.312 231.144C228.565 231.144 227.904 230.979 227.328 230.648C226.762 230.307 226.33 229.885 226.032 229.384V235.16H224.576V222.232H226.032V223.848ZM231.984 226.584C231.984 225.923 231.85 225.347 231.584 224.856C231.317 224.365 230.954 223.992 230.496 223.736C230.048 223.48 229.552 223.352 229.008 223.352C228.474 223.352 227.978 223.485 227.52 223.752C227.072 224.008 226.709 224.387 226.432 224.888C226.165 225.379 226.032 225.949 226.032 226.6C226.032 227.261 226.165 227.843 226.432 228.344C226.709 228.835 227.072 229.213 227.52 229.48C227.978 229.736 228.474 229.864 229.008 229.864C229.552 229.864 230.048 229.736 230.496 229.48C230.954 229.213 231.317 228.835 231.584 228.344C231.85 227.843 231.984 227.256 231.984 226.584ZM236.844 223.656C237.1 223.155 237.463 222.765 237.932 222.488C238.412 222.211 238.994 222.072 239.676 222.072V223.576H239.292C237.66 223.576 236.844 224.461 236.844 226.232V231H235.388V222.232H236.844V223.656ZM242.109 220.808C241.832 220.808 241.597 220.712 241.405 220.52C241.213 220.328 241.117 220.093 241.117 219.816C241.117 219.539 241.213 219.304 241.405 219.112C241.597 218.92 241.832 218.824 242.109 218.824C242.376 218.824 242.6 218.92 242.781 219.112C242.973 219.304 243.069 219.539 243.069 219.816C243.069 220.093 242.973 220.328 242.781 220.52C242.6 220.712 242.376 220.808 242.109 220.808ZM242.813 222.232V231H241.357V222.232H242.813ZM244.751 226.6C244.751 225.693 244.932 224.904 245.295 224.232C245.657 223.549 246.159 223.021 246.799 222.648C247.449 222.275 248.191 222.088 249.023 222.088C250.1 222.088 250.985 222.349 251.679 222.872C252.383 223.395 252.847 224.12 253.071 225.048H251.503C251.353 224.515 251.06 224.093 250.623 223.784C250.196 223.475 249.663 223.32 249.023 223.32C248.191 223.32 247.519 223.608 247.007 224.184C246.495 224.749 246.239 225.555 246.239 226.6C246.239 227.656 246.495 228.472 247.007 229.048C247.519 229.624 248.191 229.912 249.023 229.912C249.663 229.912 250.196 229.763 250.623 229.464C251.049 229.165 251.343 228.739 251.503 228.184H253.071C252.836 229.08 252.367 229.8 251.663 230.344C250.959 230.877 250.079 231.144 249.023 231.144C248.191 231.144 247.449 230.957 246.799 230.584C246.159 230.211 245.657 229.683 245.295 229C244.932 228.317 244.751 227.517 244.751 226.6ZM255.765 220.808C255.488 220.808 255.253 220.712 255.061 220.52C254.869 220.328 254.773 220.093 254.773 219.816C254.773 219.539 254.869 219.304 255.061 219.112C255.253 218.92 255.488 218.824 255.765 218.824C256.032 218.824 256.256 218.92 256.437 219.112C256.629 219.304 256.725 219.539 256.725 219.816C256.725 220.093 256.629 220.328 256.437 220.52C256.256 220.712 256.032 220.808 255.765 220.808ZM256.469 222.232V231H255.013V222.232H256.469ZM263.223 222.072C264.289 222.072 265.153 222.397 265.815 223.048C266.476 223.688 266.807 224.616 266.807 225.832V231H265.367V226.04C265.367 225.165 265.148 224.499 264.711 224.04C264.273 223.571 263.676 223.336 262.919 223.336C262.151 223.336 261.537 223.576 261.079 224.056C260.631 224.536 260.407 225.235 260.407 226.152V231H258.951V222.232H260.407V223.48C260.695 223.032 261.084 222.685 261.575 222.44C262.076 222.195 262.625 222.072 263.223 222.072ZM272.801 222.088C273.558 222.088 274.22 222.253 274.785 222.584C275.361 222.915 275.788 223.331 276.065 223.832V222.232H277.537V231.192C277.537 231.992 277.366 232.701 277.025 233.32C276.684 233.949 276.193 234.44 275.553 234.792C274.924 235.144 274.188 235.32 273.345 235.32C272.193 235.32 271.233 235.048 270.465 234.504C269.697 233.96 269.244 233.219 269.105 232.28H270.545C270.705 232.813 271.036 233.24 271.537 233.56C272.038 233.891 272.641 234.056 273.345 234.056C274.145 234.056 274.796 233.805 275.297 233.304C275.809 232.803 276.065 232.099 276.065 231.192V229.352C275.777 229.864 275.35 230.291 274.785 230.632C274.22 230.973 273.558 231.144 272.801 231.144C272.022 231.144 271.313 230.952 270.673 230.568C270.044 230.184 269.548 229.645 269.185 228.952C268.822 228.259 268.641 227.469 268.641 226.584C268.641 225.688 268.822 224.904 269.185 224.232C269.548 223.549 270.044 223.021 270.673 222.648C271.313 222.275 272.022 222.088 272.801 222.088ZM276.065 226.6C276.065 225.939 275.932 225.363 275.665 224.872C275.398 224.381 275.036 224.008 274.577 223.752C274.129 223.485 273.633 223.352 273.089 223.352C272.545 223.352 272.049 223.48 271.601 223.736C271.153 223.992 270.796 224.365 270.529 224.856C270.262 225.347 270.129 225.923 270.129 226.584C270.129 227.256 270.262 227.843 270.529 228.344C270.796 228.835 271.153 229.213 271.601 229.48C272.049 229.736 272.545 229.864 273.089 229.864C273.633 229.864 274.129 229.736 274.577 229.48C275.036 229.213 275.398 228.835 275.665 228.344C275.932 227.843 276.065 227.261 276.065 226.6Z" fill="#666666"/>
<path d="M65.6963 40.0961C65.5085 40.1618 65.2173 40.3214 65.0577 40.4435C64.9074 40.5656 62.0432 44.6789 58.6999 49.5904L52.6239 58.512L50.9053 58.5402L49.1868 58.5589L49.2337 58.2584C49.2619 58.0894 49.4403 56.4084 49.6187 54.5208C49.7972 52.6332 49.9662 50.9146 49.9944 50.6986C50.0507 50.3136 50.0789 50.2854 50.7175 49.9473C51.3561 49.6092 52.2576 48.8392 52.6333 48.2945L52.8211 48.0221L55.5351 48.3039C57.3758 48.4823 58.3431 48.548 58.5121 48.4917C59.038 48.3133 59.0756 47.5056 58.5685 47.2896C58.4464 47.2333 57.1128 47.0736 55.5915 46.9234C52.53 46.6323 52.2952 46.6416 51.8444 47.1394C51.6942 47.299 51.3561 47.6653 51.0838 47.9564C50.802 48.2663 50.3982 48.5856 50.0695 48.7453C49.2337 49.1491 48.9426 49.4026 48.7923 49.844C48.6984 50.0882 48.4824 51.9288 48.2383 54.3987L47.8344 58.5589H47.3931H46.9423L46.9892 58.2021C47.0174 58.0143 47.3179 55.0748 47.6466 51.6753C47.9847 48.2663 48.304 45.4114 48.351 45.3081C48.4918 45.0452 48.7548 44.9419 49.2619 44.9419C49.5061 44.9419 52.0135 45.1766 54.8214 45.4584C59.3479 45.9091 59.9677 45.9467 60.1931 45.834C60.6439 45.5992 60.6251 44.8573 60.1649 44.6601C60.0429 44.6132 58.39 44.4254 56.4742 44.2375C54.5679 44.0497 52.1262 43.8149 51.0462 43.7022C49.9568 43.5989 48.9144 43.5426 48.689 43.5708C47.8344 43.7022 47.1019 44.4347 46.9329 45.3457C46.8766 45.618 46.6136 48.0973 46.3413 50.8582L45.8529 55.8825L44.6696 55.9388C43.6554 55.9764 43.4206 56.0233 43.0356 56.2206C42.2374 56.6338 41.7866 57.4132 41.7772 58.4181C41.7678 58.8688 41.749 58.897 41.3264 59.1694C41.0916 59.3196 40.7536 59.6295 40.5845 59.8549C39.9553 60.6813 39.9835 59.9582 40.0117 73.5002L40.0398 85.7461L40.2652 86.2345C40.5376 86.8543 41.3076 87.5774 41.9181 87.8216C42.3782 88 42.8666 88 62.2028 88H82.018L82.5063 87.7746C83.0886 87.5117 83.7835 86.8073 84.0653 86.1875C84.2625 85.7649 84.2719 85.6147 84.3 82.1494L84.3282 78.562H84.6757C85.4833 78.562 86.197 78.1581 86.4412 77.5571C86.5445 77.3129 86.5727 76.4302 86.5727 73.3029C86.5727 69.5559 86.5633 69.3305 86.3849 68.983C86.1031 68.429 85.7087 68.1942 84.9574 68.1566L84.3188 68.1191V64.7195C84.3188 61.8646 84.2906 61.2354 84.1686 60.8128C83.9995 60.2493 83.6051 59.6107 83.2388 59.329C83.0229 59.16 83.0041 59.0754 83.0041 58.4462C83.0041 57.6104 82.7223 56.9437 82.1777 56.4929C81.7832 56.1736 81.0883 55.9294 80.5436 55.9294H80.1774L81.2761 54.3236C81.8865 53.4314 82.4312 52.5205 82.5063 52.2763C82.7317 51.525 82.4876 50.6329 81.9053 50.0976C81.7644 49.9661 80.5248 49.0927 79.1537 48.163C77.7826 47.2333 74.6366 45.0827 72.1574 43.3923C69.6781 41.7019 67.5276 40.2557 67.3773 40.1806C66.9923 39.9834 66.1283 39.9364 65.6963 40.0961ZM66.8608 41.4765C67.4336 41.7771 80.7408 50.9146 80.9662 51.1494C81.3794 51.5908 81.3137 51.8161 80.4027 53.1685C79.9426 53.8352 78.9471 55.319 78.1677 56.4647L76.759 58.5495L76.2143 58.5589H75.679L76.7778 56.9531C77.3788 56.0609 77.9235 55.1781 77.9986 54.9715C78.1395 54.5489 78.0831 54.2296 77.6887 53.2999C77.4727 52.7834 77.4258 52.5393 77.407 51.6753C77.3882 50.8395 77.3412 50.6047 77.1816 50.3511C77.0501 50.1257 75.8856 49.2805 73.181 47.4399C71.0868 46.0124 69.2743 44.801 69.1428 44.754C68.7296 44.5944 68.2976 44.6507 67.5369 44.9606C66.8984 45.2236 66.6824 45.2612 65.7996 45.2799C64.6163 45.3081 64.2782 45.4302 63.8744 46.0031C63.7148 46.219 61.7614 49.0833 59.5263 52.3608C57.2913 55.6383 55.4131 58.3805 55.3567 58.4462C55.2816 58.5214 55.0656 58.5589 54.7557 58.5402L54.2861 58.512L60.0053 50.107C63.1513 45.4865 65.8184 41.6268 65.9217 41.5329C66.1471 41.3545 66.5791 41.3263 66.8608 41.4765ZM72.4391 48.5856L76.0077 51.0179L76.0641 52.0415C76.111 52.8398 76.1767 53.206 76.374 53.7225C76.5148 54.0794 76.6369 54.4456 76.6463 54.5208C76.6557 54.6053 76.0734 55.5444 75.3503 56.615L74.0356 58.5495L72.8617 58.5589H71.6784L71.5751 57.9297C71.4249 57.0658 70.8144 55.8825 70.1758 55.1875C69.4997 54.455 68.7766 53.9855 67.8093 53.6474C65.8466 52.9712 63.4988 53.5253 62.0526 55.0091C61.2449 55.8355 60.6345 57.0094 60.4842 58.0236L60.4185 58.512L58.6999 58.5402C57.3194 58.5589 56.9908 58.5402 57.0471 58.4462C57.0941 58.3805 58.9159 55.6947 61.1041 52.4735L65.0859 46.6323H65.9686C66.6448 46.6323 67.011 46.5759 67.5745 46.3975C67.9783 46.266 68.3728 46.1251 68.4385 46.0782C68.523 46.0218 68.6451 46.0218 68.7202 46.0688C68.8047 46.1157 70.4764 47.2427 72.4391 48.5856ZM67.0862 54.8495C67.8469 55.0561 68.4761 55.4129 69.0489 55.9858C69.6406 56.5774 69.9974 57.2066 70.1758 57.9767L70.3073 58.5589H66.0438H61.7708L61.8366 58.2021C62.2685 55.8261 64.7384 54.239 67.0862 54.8495ZM45.6839 57.6292C45.6557 57.7889 45.6275 58.0706 45.6275 58.2396V58.5589H44.4067H43.1859V58.2209C43.1859 57.9767 43.261 57.817 43.4582 57.6104C43.7305 57.3475 43.7587 57.3381 44.7354 57.3381H45.7496L45.6839 57.6292ZM81.2479 57.5353C81.5203 57.7419 81.7738 58.4275 81.633 58.5402C81.586 58.5777 80.8441 58.5965 79.9801 58.5777L78.4118 58.5495L78.8063 57.9485L79.2007 57.3381H80.1022C80.8723 57.3381 81.0413 57.3663 81.2479 57.5353ZM82.2246 60.3057C82.8162 60.7752 82.9102 61.0664 82.9102 62.3811V63.5362H62.1559H41.4015V62.3623C41.4015 61.5265 41.4391 61.1039 41.533 60.9255C41.7021 60.5968 42.1341 60.193 42.4346 60.0709C42.5848 60.0146 49.3934 59.9864 62.2685 59.9958L81.8584 60.0146L82.2246 60.3057ZM82.9102 66.5414V68.1378H79.3697C76.5336 68.1378 75.6978 68.166 75.2189 68.2787C73.5754 68.6731 72.1668 69.9315 71.5469 71.5656C71.284 72.2699 71.1901 73.7068 71.3591 74.4393C71.7817 76.2611 73.1716 77.7449 75.0216 78.3366C75.463 78.4774 76.0453 78.5056 79.2289 78.5432L82.9102 78.5807V80.1678V81.7549H66.025C49.2149 81.7549 49.1304 81.7549 48.9614 81.9427C48.7454 82.1869 48.7454 82.6377 48.9614 82.8819C49.1304 83.0697 49.2149 83.0697 66.025 83.0697H82.9102V84.2623C82.9102 85.3329 82.882 85.502 82.6942 85.84C82.5721 86.0467 82.3185 86.3002 82.1119 86.4223L81.7363 86.6383H62.1746C40.3779 86.6383 42.2374 86.6946 41.7021 85.9997C41.4579 85.6804 41.4485 85.6147 41.4203 84.3656L41.3828 83.0697H43.3643C45.2237 83.0697 45.3552 83.0603 45.5336 82.8819C45.6369 82.7786 45.7214 82.572 45.7214 82.4123C45.7214 82.2527 45.6369 82.0461 45.5336 81.9427C45.3552 81.7643 45.2237 81.7549 43.3737 81.7549H41.4015V73.3499V64.9449H62.1559H82.9102V66.5414ZM85.1452 73.3217L85.164 77.1533H80.5906C77.9047 77.1533 75.8387 77.1063 75.6039 77.0594C74.1295 76.7119 72.9462 75.4629 72.6645 73.9509C72.2888 71.8943 73.8102 69.8282 75.895 69.5559C76.2143 69.5089 78.4212 69.4808 80.7972 69.4902L85.1171 69.4996L85.1452 73.3217Z" fill="#4086F4"/>
<path d="M75.7731 70.6641C74.5898 71.0303 73.7071 72.3357 73.8292 73.5377C73.9794 75.0309 75.1063 76.0639 76.562 76.0639C78.9849 76.0733 80.2151 73.3217 78.6374 71.4435C78.5059 71.2839 78.1397 71.0209 77.8204 70.8707C77.3414 70.6265 77.1348 70.5795 76.6277 70.5889C76.2896 70.5889 75.9046 70.6265 75.7731 70.6641ZM77.1254 72.0258C78.1115 72.439 78.2618 73.8195 77.3884 74.4675C77.0315 74.7398 76.2708 74.768 75.8858 74.5332C74.9373 73.9322 74.9937 72.5235 75.9985 72.0727C76.4587 71.8661 76.7122 71.8567 77.1254 72.0258Z" fill="#4086F4"/>
</g>
<defs>
<filter id="filter0_d_0_1" x="-458" y="-48" width="514" height="422" filterUnits="userSpaceOnUse" color-interpolation-filters="sRGB">
<feFlood flood-opacity="0" result="BackgroundImageFix"/>
<feColorMatrix in="SourceAlpha" type="matrix" values="0 0 0 0 0 0 0 0 0 0 0 0 0 0 0 0 0 0 127 0" result="hardAlpha"/>
<feOffset dx="14" dy="24"/>
<feGaussianBlur stdDeviation="36"/>
<feComposite in2="hardAlpha" operator="out"/>
<feColorMatrix type="matrix" values="0 0 0 0 0.4 0 0 0 0 0.4 0 0 0 0 0.4 0 0 0 0.1 0"/>
<feBlend mode="normal" in2="BackgroundImageFix" result="effect1_dropShadow_0_1"/>
<feBlend mode="normal" in="SourceGraphic" in2="effect1_dropShadow_0_1" result="shape"/>
</filter>
<clipPath id="clip0_0_1">
<rect width="1920" height="5875" fill="white" transform="translate(-774 -1325)"/>
</clipPath>
</defs>
</svg>
