<svg width="368" height="277" viewBox="0 0 368 277" fill="none" xmlns="http://www.w3.org/2000/svg">
<rect width="368" height="277" fill="#1E1E1E"/>
<g clip-path="url(#clip0_0_1)">
<rect width="1920" height="5875" transform="translate(-772 -1324)" fill="#FEFCFB"/>
<rect x="-772" y="-325" width="1920" height="724" fill="#F7F8FC"/>
<g filter="url(#filter0_d_0_1)">
<rect x="-398" y="1" width="370" height="278" rx="8" fill="white"/>
</g>
<rect x="2" y="1" width="370" height="278" rx="8" fill="white"/>
<rect x="3" y="2" width="368" height="276" rx="7" stroke="#666666" stroke-opacity="0.08" stroke-width="2"/>
<path d="M2 1C11 22 140.5 15 213.5 116.5C286.5 218 276 267.5 367.5 274.5" stroke="#F5F9FF" stroke-width="4"/>
<path d="M66.048 145.248L61.368 162H57.408L54.264 150.072L50.976 162L47.04 162.024L42.528 145.248H46.128L49.08 158.256L52.488 145.248H56.232L59.448 158.184L62.424 145.248H66.048ZM74.1459 162.216C72.8659 162.216 71.7139 161.936 70.6899 161.376C69.6659 160.8 68.8579 159.992 68.2659 158.952C67.6899 157.912 67.4019 156.712 67.4019 155.352C67.4019 153.992 67.6979 152.792 68.2899 151.752C68.8979 150.712 69.7219 149.912 70.7619 149.352C71.8019 148.776 72.9619 148.488 74.2419 148.488C75.5219 148.488 76.6819 148.776 77.7219 149.352C78.7619 149.912 79.5779 150.712 80.1699 151.752C80.7779 152.792 81.0819 153.992 81.0819 155.352C81.0819 156.712 80.7699 157.912 80.1459 158.952C79.5379 159.992 78.7059 160.8 77.6499 161.376C76.6099 161.936 75.4419 162.216 74.1459 162.216ZM74.1459 159.288C74.7539 159.288 75.3219 159.144 75.8499 158.856C76.3939 158.552 76.8259 158.104 77.1459 157.512C77.4659 156.92 77.6259 156.2 77.6259 155.352C77.6259 154.088 77.2899 153.12 76.6179 152.448C75.9619 151.76 75.1539 151.416 74.1939 151.416C73.2339 151.416 72.4259 151.76 71.7699 152.448C71.1299 153.12 70.8099 154.088 70.8099 155.352C70.8099 156.616 71.1219 157.592 71.7459 158.28C72.3859 158.952 73.1859 159.288 74.1459 159.288ZM86.9066 150.768C87.3386 150.064 87.8986 149.512 88.5866 149.112C89.2906 148.712 90.0906 148.512 90.9866 148.512V152.04H90.0986C89.0426 152.04 88.2426 152.288 87.6986 152.784C87.1706 153.28 86.9066 154.144 86.9066 155.376V162H83.5466V148.704H86.9066V150.768ZM97.1618 151.464V157.896C97.1618 158.344 97.2658 158.672 97.4738 158.88C97.6978 159.072 98.0658 159.168 98.5778 159.168H100.138V162H98.0258C95.1938 162 93.7778 160.624 93.7778 157.872V151.464H92.1938V148.704H93.7778V145.416H97.1618V148.704H100.138V151.464H97.1618ZM110.042 148.512C111.05 148.512 111.946 148.736 112.73 149.184C113.514 149.616 114.122 150.264 114.554 151.128C115.002 151.976 115.226 153 115.226 154.2V162H111.866V154.656C111.866 153.6 111.602 152.792 111.074 152.232C110.546 151.656 109.826 151.368 108.914 151.368C107.986 151.368 107.25 151.656 106.706 152.232C106.178 152.792 105.914 153.6 105.914 154.656V162H102.554V144.24H105.914V150.36C106.346 149.784 106.922 149.336 107.642 149.016C108.362 148.68 109.162 148.512 110.042 148.512ZM130.044 162.216C128.764 162.216 127.612 161.936 126.588 161.376C125.564 160.8 124.756 159.992 124.164 158.952C123.588 157.912 123.3 156.712 123.3 155.352C123.3 153.992 123.596 152.792 124.188 151.752C124.796 150.712 125.62 149.912 126.66 149.352C127.7 148.776 128.86 148.488 130.14 148.488C131.42 148.488 132.58 148.776 133.62 149.352C134.66 149.912 135.476 150.712 136.068 151.752C136.676 152.792 136.98 153.992 136.98 155.352C136.98 156.712 136.668 157.912 136.044 158.952C135.436 159.992 134.604 160.8 133.548 161.376C132.508 161.936 131.34 162.216 130.044 162.216ZM130.044 159.288C130.652 159.288 131.22 159.144 131.748 158.856C132.292 158.552 132.724 158.104 133.044 157.512C133.364 156.92 133.524 156.2 133.524 155.352C133.524 154.088 133.188 153.12 132.516 152.448C131.86 151.76 131.052 151.416 130.092 151.416C129.132 151.416 128.324 151.76 127.668 152.448C127.028 153.12 126.708 154.088 126.708 155.352C126.708 156.616 127.02 157.592 127.644 158.28C128.284 158.952 129.084 159.288 130.044 159.288ZM145.541 151.464H143.213V162H139.805V151.464H138.293V148.704H139.805V148.032C139.805 146.4 140.269 145.2 141.197 144.432C142.125 143.664 143.525 143.304 145.397 143.352V146.184C144.581 146.168 144.013 146.304 143.693 146.592C143.373 146.88 143.213 147.4 143.213 148.152V148.704H145.541V151.464ZM171.701 145.248V162H168.341V151.104L163.853 162H161.309L156.797 151.104V162H153.437V145.248H157.253L162.581 157.704L167.909 145.248H171.701ZM180.927 162.216C179.647 162.216 178.495 161.936 177.471 161.376C176.447 160.8 175.639 159.992 175.047 158.952C174.471 157.912 174.183 156.712 174.183 155.352C174.183 153.992 174.479 152.792 175.071 151.752C175.679 150.712 176.503 149.912 177.543 149.352C178.583 148.776 179.743 148.488 181.023 148.488C182.303 148.488 183.463 148.776 184.503 149.352C185.543 149.912 186.359 150.712 186.951 151.752C187.559 152.792 187.863 153.992 187.863 155.352C187.863 156.712 187.551 157.912 186.927 158.952C186.319 159.992 185.487 160.8 184.431 161.376C183.391 161.936 182.223 162.216 180.927 162.216ZM180.927 159.288C181.535 159.288 182.103 159.144 182.631 158.856C183.175 158.552 183.607 158.104 183.927 157.512C184.247 156.92 184.407 156.2 184.407 155.352C184.407 154.088 184.071 153.12 183.399 152.448C182.743 151.76 181.935 151.416 180.975 151.416C180.015 151.416 179.207 151.76 178.551 152.448C177.911 153.12 177.591 154.088 177.591 155.352C177.591 156.616 177.903 157.592 178.527 158.28C179.167 158.952 179.967 159.288 180.927 159.288ZM197.696 148.512C199.28 148.512 200.56 149.016 201.536 150.024C202.512 151.016 203 152.408 203 154.2V162H199.64V154.656C199.64 153.6 199.376 152.792 198.848 152.232C198.32 151.656 197.6 151.368 196.688 151.368C195.76 151.368 195.024 151.656 194.48 152.232C193.952 152.792 193.688 153.6 193.688 154.656V162H190.328V148.704H193.688V150.36C194.136 149.784 194.704 149.336 195.392 149.016C196.096 148.68 196.864 148.512 197.696 148.512ZM218.555 155.064C218.555 155.544 218.523 155.976 218.459 156.36H208.739C208.819 157.32 209.155 158.072 209.747 158.616C210.339 159.16 211.067 159.432 211.931 159.432C213.179 159.432 214.067 158.896 214.595 157.824H218.219C217.835 159.104 217.099 160.16 216.011 160.992C214.923 161.808 213.587 162.216 212.003 162.216C210.723 162.216 209.571 161.936 208.547 161.376C207.539 160.8 206.747 159.992 206.171 158.952C205.611 157.912 205.331 156.712 205.331 155.352C205.331 153.976 205.611 152.768 206.171 151.728C206.731 150.688 207.515 149.888 208.523 149.328C209.531 148.768 210.691 148.488 212.003 148.488C213.267 148.488 214.395 148.76 215.387 149.304C216.395 149.848 217.171 150.624 217.715 151.632C218.275 152.624 218.555 153.768 218.555 155.064ZM215.075 154.104C215.059 153.24 214.747 152.552 214.139 152.04C213.531 151.512 212.787 151.248 211.907 151.248C211.075 151.248 210.371 151.504 209.795 152.016C209.235 152.512 208.891 153.208 208.763 154.104H215.075ZM233.728 148.704L225.496 168.288H221.92L224.8 161.664L219.472 148.704H223.24L226.672 157.992L230.152 148.704H233.728Z" fill="#222222"/>
<path d="M49.824 203.52H44.96L44.064 206H42.528L46.56 194.912H48.24L52.256 206H50.72L49.824 203.52ZM49.408 202.336L47.392 196.704L45.376 202.336H49.408ZM57.5813 198.432H55.7413V206H54.2853V198.432H53.1493V197.232H54.2853V196.608C54.2853 195.627 54.5359 194.912 55.0373 194.464C55.5493 194.005 56.3653 193.776 57.4852 193.776V194.992C56.8453 194.992 56.3919 195.12 56.1253 195.376C55.8693 195.621 55.7413 196.032 55.7413 196.608V197.232H57.5813V198.432ZM61.0549 198.432V203.6C61.0549 204.027 61.1455 204.331 61.3269 204.512C61.5082 204.683 61.8229 204.768 62.2709 204.768H63.3429V206H62.0309C61.2202 206 60.6122 205.813 60.2069 205.44C59.8015 205.067 59.5989 204.453 59.5989 203.6V198.432H58.4629V197.232H59.5989V195.024H61.0549V197.232H63.3429V198.432H61.0549ZM73.107 201.28C73.107 201.557 73.091 201.851 73.059 202.16H66.051C66.1043 203.024 66.3977 203.701 66.931 204.192C67.475 204.672 68.131 204.912 68.899 204.912C69.5283 204.912 70.051 204.768 70.467 204.48C70.8937 204.181 71.1923 203.787 71.363 203.296H72.931C72.6963 204.139 72.227 204.827 71.523 205.36C70.819 205.883 69.9443 206.144 68.899 206.144C68.067 206.144 67.3203 205.957 66.659 205.584C66.0083 205.211 65.4963 204.683 65.123 204C64.7497 203.307 64.563 202.507 64.563 201.6C64.563 200.693 64.7443 199.899 65.107 199.216C65.4697 198.533 65.9763 198.011 66.627 197.648C67.2883 197.275 68.0457 197.088 68.899 197.088C69.731 197.088 70.467 197.269 71.107 197.632C71.747 197.995 72.2377 198.496 72.579 199.136C72.931 199.765 73.107 200.48 73.107 201.28ZM71.603 200.976C71.603 200.421 71.4803 199.947 71.235 199.552C70.9897 199.147 70.6537 198.843 70.227 198.64C69.811 198.427 69.347 198.32 68.835 198.32C68.099 198.32 67.4697 198.555 66.947 199.024C66.435 199.493 66.1417 200.144 66.067 200.976H71.603ZM76.4849 198.656C76.7409 198.155 77.1035 197.765 77.5729 197.488C78.0529 197.211 78.6342 197.072 79.3169 197.072V198.576H78.9329C77.3009 198.576 76.4849 199.461 76.4849 201.232V206H75.0289V197.232H76.4849V198.656ZM88.3673 206.144C87.6953 206.144 87.0926 206.032 86.5593 205.808C86.0259 205.573 85.6046 205.253 85.2953 204.848C84.9859 204.432 84.8153 203.957 84.7833 203.424H86.2873C86.3299 203.861 86.5326 204.219 86.8953 204.496C87.2686 204.773 87.7539 204.912 88.3513 204.912C88.9059 204.912 89.3433 204.789 89.6633 204.544C89.9833 204.299 90.1433 203.989 90.1433 203.616C90.1433 203.232 89.9726 202.949 89.6313 202.768C89.2899 202.576 88.7619 202.389 88.0473 202.208C87.3966 202.037 86.8633 201.867 86.4473 201.696C86.0419 201.515 85.6899 201.253 85.3913 200.912C85.1033 200.56 84.9593 200.101 84.9593 199.536C84.9593 199.088 85.0926 198.677 85.3593 198.304C85.6259 197.931 86.0046 197.637 86.4953 197.424C86.9859 197.2 87.5459 197.088 88.1753 197.088C89.1459 197.088 89.9299 197.333 90.5273 197.824C91.1246 198.315 91.4446 198.987 91.4873 199.84H90.0313C89.9993 199.381 89.8126 199.013 89.4713 198.736C89.1406 198.459 88.6926 198.32 88.1273 198.32C87.6046 198.32 87.1886 198.432 86.8793 198.656C86.5699 198.88 86.4153 199.173 86.4153 199.536C86.4153 199.824 86.5059 200.064 86.6873 200.256C86.8793 200.437 87.1139 200.587 87.3913 200.704C87.6793 200.811 88.0739 200.933 88.5753 201.072C89.2046 201.243 89.7166 201.413 90.1113 201.584C90.5059 201.744 90.8419 201.989 91.1193 202.32C91.4073 202.651 91.5566 203.083 91.5673 203.616C91.5673 204.096 91.4339 204.528 91.1673 204.912C90.9006 205.296 90.5219 205.6 90.0313 205.824C89.5513 206.037 88.9966 206.144 88.3673 206.144ZM101.399 197.232V206H99.9426V204.704C99.6653 205.152 99.276 205.504 98.7746 205.76C98.284 206.005 97.74 206.128 97.1426 206.128C96.46 206.128 95.8466 205.989 95.3026 205.712C94.7586 205.424 94.3266 204.997 94.0066 204.432C93.6973 203.867 93.5426 203.179 93.5426 202.368V197.232H94.9826V202.176C94.9826 203.04 95.2013 203.707 95.6386 204.176C96.076 204.635 96.6733 204.864 97.4306 204.864C98.2093 204.864 98.8226 204.624 99.2706 204.144C99.7186 203.664 99.9426 202.965 99.9426 202.048V197.232H101.399ZM103.313 201.6C103.313 200.693 103.494 199.904 103.857 199.232C104.22 198.549 104.721 198.021 105.361 197.648C106.012 197.275 106.753 197.088 107.585 197.088C108.662 197.088 109.548 197.349 110.241 197.872C110.945 198.395 111.409 199.12 111.633 200.048H110.065C109.916 199.515 109.622 199.093 109.185 198.784C108.758 198.475 108.225 198.32 107.585 198.32C106.753 198.32 106.081 198.608 105.569 199.184C105.057 199.749 104.801 200.555 104.801 201.6C104.801 202.656 105.057 203.472 105.569 204.048C106.081 204.624 106.753 204.912 107.585 204.912C108.225 204.912 108.758 204.763 109.185 204.464C109.612 204.165 109.905 203.739 110.065 203.184H111.633C111.398 204.08 110.929 204.8 110.225 205.344C109.521 205.877 108.641 206.144 107.585 206.144C106.753 206.144 106.012 205.957 105.361 205.584C104.721 205.211 104.22 204.683 103.857 204C103.494 203.317 103.313 202.517 103.313 201.6ZM113.032 201.6C113.032 200.693 113.213 199.904 113.576 199.232C113.938 198.549 114.44 198.021 115.08 197.648C115.73 197.275 116.472 197.088 117.304 197.088C118.381 197.088 119.266 197.349 119.96 197.872C120.664 198.395 121.128 199.12 121.352 200.048H119.784C119.634 199.515 119.341 199.093 118.904 198.784C118.477 198.475 117.944 198.32 117.304 198.32C116.472 198.32 115.8 198.608 115.288 199.184C114.776 199.749 114.52 200.555 114.52 201.6C114.52 202.656 114.776 203.472 115.288 204.048C115.8 204.624 116.472 204.912 117.304 204.912C117.944 204.912 118.477 204.763 118.904 204.464C119.33 204.165 119.624 203.739 119.784 203.184H121.352C121.117 204.08 120.648 204.8 119.944 205.344C119.24 205.877 118.36 206.144 117.304 206.144C116.472 206.144 115.73 205.957 115.08 205.584C114.44 205.211 113.938 204.683 113.576 204C113.213 203.317 113.032 202.517 113.032 201.6ZM131.295 201.28C131.295 201.557 131.279 201.851 131.247 202.16H124.239C124.292 203.024 124.585 203.701 125.119 204.192C125.663 204.672 126.319 204.912 127.087 204.912C127.716 204.912 128.239 204.768 128.655 204.48C129.081 204.181 129.38 203.787 129.551 203.296H131.119C130.884 204.139 130.415 204.827 129.711 205.36C129.007 205.883 128.132 206.144 127.087 206.144C126.255 206.144 125.508 205.957 124.847 205.584C124.196 205.211 123.684 204.683 123.311 204C122.937 203.307 122.751 202.507 122.751 201.6C122.751 200.693 122.932 199.899 123.295 199.216C123.657 198.533 124.164 198.011 124.815 197.648C125.476 197.275 126.233 197.088 127.087 197.088C127.919 197.088 128.655 197.269 129.295 197.632C129.935 197.995 130.425 198.496 130.767 199.136C131.119 199.765 131.295 200.48 131.295 201.28ZM129.791 200.976C129.791 200.421 129.668 199.947 129.423 199.552C129.177 199.147 128.841 198.843 128.415 198.64C127.999 198.427 127.535 198.32 127.023 198.32C126.287 198.32 125.657 198.555 125.135 199.024C124.623 199.493 124.329 200.144 124.255 200.976H129.791ZM136.32 206.144C135.648 206.144 135.046 206.032 134.512 205.808C133.979 205.573 133.558 205.253 133.248 204.848C132.939 204.432 132.768 203.957 132.736 203.424H134.24C134.283 203.861 134.486 204.219 134.848 204.496C135.222 204.773 135.707 204.912 136.304 204.912C136.859 204.912 137.296 204.789 137.616 204.544C137.936 204.299 138.096 203.989 138.096 203.616C138.096 203.232 137.926 202.949 137.584 202.768C137.243 202.576 136.715 202.389 136 202.208C135.35 202.037 134.816 201.867 134.4 201.696C133.995 201.515 133.643 201.253 133.344 200.912C133.056 200.56 132.912 200.101 132.912 199.536C132.912 199.088 133.046 198.677 133.312 198.304C133.579 197.931 133.958 197.637 134.448 197.424C134.939 197.2 135.499 197.088 136.128 197.088C137.099 197.088 137.883 197.333 138.48 197.824C139.078 198.315 139.398 198.987 139.44 199.84H137.984C137.952 199.381 137.766 199.013 137.424 198.736C137.094 198.459 136.646 198.32 136.08 198.32C135.558 198.32 135.142 198.432 134.832 198.656C134.523 198.88 134.368 199.173 134.368 199.536C134.368 199.824 134.459 200.064 134.64 200.256C134.832 200.437 135.067 200.587 135.344 200.704C135.632 200.811 136.027 200.933 136.528 201.072C137.158 201.243 137.67 201.413 138.064 201.584C138.459 201.744 138.795 201.989 139.072 202.32C139.36 202.651 139.51 203.083 139.52 203.616C139.52 204.096 139.387 204.528 139.12 204.912C138.854 205.296 138.475 205.6 137.984 205.824C137.504 206.037 136.95 206.144 136.32 206.144ZM144.68 206.144C144.008 206.144 143.405 206.032 142.872 205.808C142.338 205.573 141.917 205.253 141.608 204.848C141.298 204.432 141.128 203.957 141.096 203.424H142.6C142.642 203.861 142.845 204.219 143.208 204.496C143.581 204.773 144.066 204.912 144.664 204.912C145.218 204.912 145.656 204.789 145.976 204.544C146.296 204.299 146.456 203.989 146.456 203.616C146.456 203.232 146.285 202.949 145.944 202.768C145.602 202.576 145.074 202.389 144.36 202.208C143.709 202.037 143.176 201.867 142.76 201.696C142.354 201.515 142.002 201.253 141.704 200.912C141.416 200.56 141.272 200.101 141.272 199.536C141.272 199.088 141.405 198.677 141.672 198.304C141.938 197.931 142.317 197.637 142.808 197.424C143.298 197.2 143.858 197.088 144.488 197.088C145.458 197.088 146.242 197.333 146.84 197.824C147.437 198.315 147.757 198.987 147.8 199.84H146.344C146.312 199.381 146.125 199.013 145.784 198.736C145.453 198.459 145.005 198.32 144.44 198.32C143.917 198.32 143.501 198.432 143.192 198.656C142.882 198.88 142.728 199.173 142.728 199.536C142.728 199.824 142.818 200.064 143 200.256C143.192 200.437 143.426 200.587 143.704 200.704C143.992 200.811 144.386 200.933 144.888 201.072C145.517 201.243 146.029 201.413 146.424 201.584C146.818 201.744 147.154 201.989 147.432 202.32C147.72 202.651 147.869 203.083 147.88 203.616C147.88 204.096 147.746 204.528 147.48 204.912C147.213 205.296 146.834 205.6 146.344 205.824C145.864 206.037 145.309 206.144 144.68 206.144ZM153.503 198.432H151.663V206H150.207V198.432H149.071V197.232H150.207V196.608C150.207 195.627 150.458 194.912 150.959 194.464C151.471 194.005 152.287 193.776 153.407 193.776V194.992C152.767 194.992 152.314 195.12 152.047 195.376C151.791 195.621 151.663 196.032 151.663 196.608V197.232H153.503V198.432ZM162.977 197.232V206H161.521V204.704C161.243 205.152 160.854 205.504 160.353 205.76C159.862 206.005 159.318 206.128 158.721 206.128C158.038 206.128 157.425 205.989 156.881 205.712C156.337 205.424 155.905 204.997 155.585 204.432C155.275 203.867 155.121 203.179 155.121 202.368V197.232H156.561V202.176C156.561 203.04 156.779 203.707 157.217 204.176C157.654 204.635 158.251 204.864 159.009 204.864C159.787 204.864 160.401 204.624 160.849 204.144C161.297 203.664 161.521 202.965 161.521 202.048V197.232H162.977ZM166.891 194.16V206H165.435V194.16H166.891ZM173.094 201.584C173.094 200.688 173.276 199.904 173.638 199.232C174.001 198.549 174.497 198.021 175.126 197.648C175.766 197.275 176.476 197.088 177.254 197.088C178.022 197.088 178.689 197.253 179.254 197.584C179.82 197.915 180.241 198.331 180.518 198.832V197.232H181.99V206H180.518V204.368C180.23 204.88 179.798 205.307 179.222 205.648C178.657 205.979 177.996 206.144 177.238 206.144C176.46 206.144 175.756 205.952 175.126 205.568C174.497 205.184 174.001 204.645 173.638 203.952C173.276 203.259 173.094 202.469 173.094 201.584ZM180.518 201.6C180.518 200.939 180.385 200.363 180.118 199.872C179.852 199.381 179.489 199.008 179.03 198.752C178.582 198.485 178.086 198.352 177.542 198.352C176.998 198.352 176.502 198.48 176.054 198.736C175.606 198.992 175.249 199.365 174.982 199.856C174.716 200.347 174.582 200.923 174.582 201.584C174.582 202.256 174.716 202.843 174.982 203.344C175.249 203.835 175.606 204.213 176.054 204.48C176.502 204.736 176.998 204.864 177.542 204.864C178.086 204.864 178.582 204.736 179.03 204.48C179.489 204.213 179.852 203.835 180.118 203.344C180.385 202.843 180.518 202.261 180.518 201.6ZM183.907 201.6C183.907 200.693 184.088 199.904 184.451 199.232C184.813 198.549 185.315 198.021 185.955 197.648C186.605 197.275 187.347 197.088 188.179 197.088C189.256 197.088 190.141 197.349 190.835 197.872C191.539 198.395 192.003 199.12 192.227 200.048H190.659C190.509 199.515 190.216 199.093 189.779 198.784C189.352 198.475 188.819 198.32 188.179 198.32C187.347 198.32 186.675 198.608 186.163 199.184C185.651 199.749 185.395 200.555 185.395 201.6C185.395 202.656 185.651 203.472 186.163 204.048C186.675 204.624 187.347 204.912 188.179 204.912C188.819 204.912 189.352 204.763 189.779 204.464C190.205 204.165 190.499 203.739 190.659 203.184H192.227C191.992 204.08 191.523 204.8 190.819 205.344C190.115 205.877 189.235 206.144 188.179 206.144C187.347 206.144 186.605 205.957 185.955 205.584C185.315 205.211 184.813 204.683 184.451 204C184.088 203.317 183.907 202.517 183.907 201.6ZM193.626 201.6C193.626 200.693 193.807 199.904 194.17 199.232C194.532 198.549 195.034 198.021 195.674 197.648C196.324 197.275 197.066 197.088 197.898 197.088C198.975 197.088 199.86 197.349 200.554 197.872C201.258 198.395 201.722 199.12 201.946 200.048H200.378C200.228 199.515 199.935 199.093 199.498 198.784C199.071 198.475 198.538 198.32 197.898 198.32C197.066 198.32 196.394 198.608 195.882 199.184C195.37 199.749 195.114 200.555 195.114 201.6C195.114 202.656 195.37 203.472 195.882 204.048C196.394 204.624 197.066 204.912 197.898 204.912C198.538 204.912 199.071 204.763 199.498 204.464C199.924 204.165 200.218 203.739 200.378 203.184H201.946C201.711 204.08 201.242 204.8 200.538 205.344C199.834 205.877 198.954 206.144 197.898 206.144C197.066 206.144 196.324 205.957 195.674 205.584C195.034 205.211 194.532 204.683 194.17 204C193.807 203.317 193.626 202.517 193.626 201.6ZM211.888 201.28C211.888 201.557 211.872 201.851 211.84 202.16H204.832C204.886 203.024 205.179 203.701 205.712 204.192C206.256 204.672 206.912 204.912 207.68 204.912C208.31 204.912 208.832 204.768 209.248 204.48C209.675 204.181 209.974 203.787 210.144 203.296H211.712C211.478 204.139 211.008 204.827 210.304 205.36C209.6 205.883 208.726 206.144 207.68 206.144C206.848 206.144 206.102 205.957 205.44 205.584C204.79 205.211 204.278 204.683 203.904 204C203.531 203.307 203.344 202.507 203.344 201.6C203.344 200.693 203.526 199.899 203.888 199.216C204.251 198.533 204.758 198.011 205.408 197.648C206.07 197.275 206.827 197.088 207.68 197.088C208.512 197.088 209.248 197.269 209.888 197.632C210.528 197.995 211.019 198.496 211.36 199.136C211.712 199.765 211.888 200.48 211.888 201.28ZM210.384 200.976C210.384 200.421 210.262 199.947 210.016 199.552C209.771 199.147 209.435 198.843 209.008 198.64C208.592 198.427 208.128 198.32 207.616 198.32C206.88 198.32 206.251 198.555 205.728 199.024C205.216 199.493 204.923 200.144 204.848 200.976H210.384ZM216.914 206.144C216.242 206.144 215.639 206.032 215.106 205.808C214.573 205.573 214.151 205.253 213.842 204.848C213.533 204.432 213.362 203.957 213.33 203.424H214.834C214.877 203.861 215.079 204.219 215.442 204.496C215.815 204.773 216.301 204.912 216.898 204.912C217.453 204.912 217.89 204.789 218.21 204.544C218.53 204.299 218.69 203.989 218.69 203.616C218.69 203.232 218.519 202.949 218.178 202.768C217.837 202.576 217.309 202.389 216.594 202.208C215.943 202.037 215.41 201.867 214.994 201.696C214.589 201.515 214.237 201.253 213.938 200.912C213.65 200.56 213.506 200.101 213.506 199.536C213.506 199.088 213.639 198.677 213.906 198.304C214.173 197.931 214.551 197.637 215.042 197.424C215.533 197.2 216.093 197.088 216.722 197.088C217.693 197.088 218.477 197.333 219.074 197.824C219.671 198.315 219.991 198.987 220.034 199.84H218.578C218.546 199.381 218.359 199.013 218.018 198.736C217.687 198.459 217.239 198.32 216.674 198.32C216.151 198.32 215.735 198.432 215.426 198.656C215.117 198.88 214.962 199.173 214.962 199.536C214.962 199.824 215.053 200.064 215.234 200.256C215.426 200.437 215.661 200.587 215.938 200.704C216.226 200.811 216.621 200.933 217.122 201.072C217.751 201.243 218.263 201.413 218.658 201.584C219.053 201.744 219.389 201.989 219.666 202.32C219.954 202.651 220.103 203.083 220.114 203.616C220.114 204.096 219.981 204.528 219.714 204.912C219.447 205.296 219.069 205.6 218.578 205.824C218.098 206.037 217.543 206.144 216.914 206.144ZM225.274 206.144C224.602 206.144 223.999 206.032 223.466 205.808C222.932 205.573 222.511 205.253 222.202 204.848C221.892 204.432 221.722 203.957 221.69 203.424H223.194C223.236 203.861 223.439 204.219 223.802 204.496C224.175 204.773 224.66 204.912 225.258 204.912C225.812 204.912 226.25 204.789 226.57 204.544C226.89 204.299 227.05 203.989 227.05 203.616C227.05 203.232 226.879 202.949 226.538 202.768C226.196 202.576 225.668 202.389 224.954 202.208C224.303 202.037 223.77 201.867 223.354 201.696C222.948 201.515 222.596 201.253 222.298 200.912C222.01 200.56 221.866 200.101 221.866 199.536C221.866 199.088 221.999 198.677 222.266 198.304C222.532 197.931 222.911 197.637 223.402 197.424C223.892 197.2 224.452 197.088 225.082 197.088C226.052 197.088 226.836 197.333 227.434 197.824C228.031 198.315 228.351 198.987 228.394 199.84H226.938C226.906 199.381 226.719 199.013 226.378 198.736C226.047 198.459 225.599 198.32 225.034 198.32C224.511 198.32 224.095 198.432 223.786 198.656C223.476 198.88 223.322 199.173 223.322 199.536C223.322 199.824 223.412 200.064 223.594 200.256C223.786 200.437 224.02 200.587 224.298 200.704C224.586 200.811 224.98 200.933 225.482 201.072C226.111 201.243 226.623 201.413 227.018 201.584C227.412 201.744 227.748 201.989 228.026 202.32C228.314 202.651 228.463 203.083 228.474 203.616C228.474 204.096 228.34 204.528 228.074 204.912C227.807 205.296 227.428 205.6 226.938 205.824C226.458 206.037 225.903 206.144 225.274 206.144ZM236.571 198.432V203.6C236.571 204.027 236.661 204.331 236.843 204.512C237.024 204.683 237.339 204.768 237.786 204.768H238.859V206H237.547C236.736 206 236.128 205.813 235.723 205.44C235.317 205.067 235.115 204.453 235.115 203.6V198.432H233.979V197.232H235.115V195.024H236.571V197.232H238.859V198.432H236.571ZM244.975 197.072C245.636 197.072 246.233 197.216 246.767 197.504C247.3 197.781 247.716 198.203 248.015 198.768C248.324 199.333 248.479 200.021 248.479 200.832V206H247.039V201.04C247.039 200.165 246.82 199.499 246.383 199.04C245.945 198.571 245.348 198.336 244.591 198.336C243.823 198.336 243.209 198.576 242.751 199.056C242.303 199.536 242.079 200.235 242.079 201.152V206H240.623V194.16H242.079V198.48C242.367 198.032 242.761 197.685 243.263 197.44C243.775 197.195 244.345 197.072 244.975 197.072ZM258.857 201.28C258.857 201.557 258.841 201.851 258.809 202.16H251.801C251.854 203.024 252.148 203.701 252.681 204.192C253.225 204.672 253.881 204.912 254.649 204.912C255.278 204.912 255.801 204.768 256.217 204.48C256.644 204.181 256.942 203.787 257.113 203.296H258.681C258.446 204.139 257.977 204.827 257.273 205.36C256.569 205.883 255.694 206.144 254.649 206.144C253.817 206.144 253.07 205.957 252.409 205.584C251.758 205.211 251.246 204.683 250.873 204C250.5 203.307 250.313 202.507 250.313 201.6C250.313 200.693 250.494 199.899 250.857 199.216C251.22 198.533 251.726 198.011 252.377 197.648C253.038 197.275 253.796 197.088 254.649 197.088C255.481 197.088 256.217 197.269 256.857 197.632C257.497 197.995 257.988 198.496 258.329 199.136C258.681 199.765 258.857 200.48 258.857 201.28ZM257.353 200.976C257.353 200.421 257.23 199.947 256.985 199.552C256.74 199.147 256.404 198.843 255.977 198.64C255.561 198.427 255.097 198.32 254.585 198.32C253.849 198.32 253.22 198.555 252.697 199.024C252.185 199.493 251.892 200.144 251.817 200.976H257.353ZM265.051 197.072C266.118 197.072 266.982 197.397 267.643 198.048C268.304 198.688 268.635 199.616 268.635 200.832V206H267.195V201.04C267.195 200.165 266.976 199.499 266.539 199.04C266.102 198.571 265.504 198.336 264.747 198.336C263.979 198.336 263.366 198.576 262.907 199.056C262.459 199.536 262.235 200.235 262.235 201.152V206H260.779V197.232H262.235V198.48C262.523 198.032 262.912 197.685 263.403 197.44C263.904 197.195 264.454 197.072 265.051 197.072ZM276.735 198.864C277.034 198.341 277.471 197.915 278.047 197.584C278.623 197.253 279.279 197.088 280.015 197.088C280.804 197.088 281.514 197.275 282.143 197.648C282.772 198.021 283.268 198.549 283.631 199.232C283.994 199.904 284.175 200.688 284.175 201.584C284.175 202.469 283.994 203.259 283.631 203.952C283.268 204.645 282.767 205.184 282.127 205.568C281.498 205.952 280.794 206.144 280.015 206.144C279.258 206.144 278.591 205.979 278.015 205.648C277.45 205.317 277.023 204.896 276.735 204.384V206H275.279V194.16H276.735V198.864ZM282.687 201.584C282.687 200.923 282.554 200.347 282.287 199.856C282.02 199.365 281.658 198.992 281.199 198.736C280.751 198.48 280.255 198.352 279.711 198.352C279.178 198.352 278.682 198.485 278.223 198.752C277.775 199.008 277.412 199.387 277.135 199.888C276.868 200.379 276.735 200.949 276.735 201.6C276.735 202.261 276.868 202.843 277.135 203.344C277.412 203.835 277.775 204.213 278.223 204.48C278.682 204.736 279.178 204.864 279.711 204.864C280.255 204.864 280.751 204.736 281.199 204.48C281.658 204.213 282.02 203.835 282.287 203.344C282.554 202.843 282.687 202.256 282.687 201.584ZM289.915 206.144C289.094 206.144 288.347 205.957 287.675 205.584C287.014 205.211 286.491 204.683 286.107 204C285.734 203.307 285.547 202.507 285.547 201.6C285.547 200.704 285.739 199.915 286.123 199.232C286.518 198.539 287.051 198.011 287.723 197.648C288.395 197.275 289.147 197.088 289.979 197.088C290.811 197.088 291.563 197.275 292.235 197.648C292.907 198.011 293.435 198.533 293.819 199.216C294.214 199.899 294.411 200.693 294.411 201.6C294.411 202.507 294.209 203.307 293.803 204C293.409 204.683 292.87 205.211 292.187 205.584C291.505 205.957 290.747 206.144 289.915 206.144ZM289.915 204.864C290.438 204.864 290.929 204.741 291.387 204.496C291.846 204.251 292.214 203.883 292.491 203.392C292.779 202.901 292.923 202.304 292.923 201.6C292.923 200.896 292.785 200.299 292.507 199.808C292.23 199.317 291.867 198.955 291.419 198.72C290.971 198.475 290.486 198.352 289.963 198.352C289.43 198.352 288.939 198.475 288.491 198.72C288.054 198.955 287.702 199.317 287.435 199.808C287.169 200.299 287.035 200.896 287.035 201.6C287.035 202.315 287.163 202.917 287.419 203.408C287.686 203.899 288.038 204.267 288.475 204.512C288.913 204.747 289.393 204.864 289.915 204.864ZM300.15 206.144C299.328 206.144 298.582 205.957 297.91 205.584C297.248 205.211 296.726 204.683 296.342 204C295.968 203.307 295.782 202.507 295.782 201.6C295.782 200.704 295.974 199.915 296.358 199.232C296.752 198.539 297.286 198.011 297.958 197.648C298.63 197.275 299.382 197.088 300.214 197.088C301.046 197.088 301.798 197.275 302.47 197.648C303.142 198.011 303.67 198.533 304.054 199.216C304.448 199.899 304.646 200.693 304.646 201.6C304.646 202.507 304.443 203.307 304.038 204C303.643 204.683 303.104 205.211 302.422 205.584C301.739 205.957 300.982 206.144 300.15 206.144ZM300.15 204.864C300.672 204.864 301.163 204.741 301.622 204.496C302.08 204.251 302.448 203.883 302.726 203.392C303.014 202.901 303.158 202.304 303.158 201.6C303.158 200.896 303.019 200.299 302.742 199.808C302.464 199.317 302.102 198.955 301.654 198.72C301.206 198.475 300.72 198.352 300.198 198.352C299.664 198.352 299.174 198.475 298.726 198.72C298.288 198.955 297.936 199.317 297.67 199.808C297.403 200.299 297.27 200.896 297.27 201.6C297.27 202.315 297.398 202.917 297.654 203.408C297.92 203.899 298.272 204.267 298.71 204.512C299.147 204.747 299.627 204.864 300.15 204.864ZM311.456 206L308.016 202.128V206H306.56V194.16H308.016V201.12L311.392 197.232H313.424L309.296 201.6L313.44 206H311.456ZM46.8 224.432H44.96V232H43.504V224.432H42.368V223.232H43.504V222.608C43.504 221.627 43.7547 220.912 44.256 220.464C44.768 220.005 45.584 219.776 46.704 219.776V220.992C46.064 220.992 45.6107 221.12 45.344 221.376C45.088 221.621 44.96 222.032 44.96 222.608V223.232H46.8V224.432ZM49.9536 224.656C50.2096 224.155 50.5723 223.765 51.0416 223.488C51.5216 223.211 52.103 223.072 52.7856 223.072V224.576H52.4016C50.7696 224.576 49.9536 225.461 49.9536 227.232V232H48.4976V223.232H49.9536V224.656ZM58.2904 232.144C57.469 232.144 56.7224 231.957 56.0504 231.584C55.389 231.211 54.8664 230.683 54.4824 230C54.109 229.307 53.9224 228.507 53.9224 227.6C53.9224 226.704 54.1144 225.915 54.4984 225.232C54.893 224.539 55.4264 224.011 56.0984 223.648C56.7704 223.275 57.5224 223.088 58.3544 223.088C59.1864 223.088 59.9384 223.275 60.6104 223.648C61.2824 224.011 61.8104 224.533 62.1944 225.216C62.589 225.899 62.7864 226.693 62.7864 227.6C62.7864 228.507 62.5837 229.307 62.1784 230C61.7837 230.683 61.245 231.211 60.5624 231.584C59.8797 231.957 59.1224 232.144 58.2904 232.144ZM58.2904 230.864C58.813 230.864 59.3037 230.741 59.7624 230.496C60.221 230.251 60.589 229.883 60.8664 229.392C61.1544 228.901 61.2984 228.304 61.2984 227.6C61.2984 226.896 61.1597 226.299 60.8824 225.808C60.605 225.317 60.2424 224.955 59.7944 224.72C59.3464 224.475 58.861 224.352 58.3384 224.352C57.805 224.352 57.3144 224.475 56.8664 224.72C56.429 224.955 56.077 225.317 55.8104 225.808C55.5437 226.299 55.4104 226.896 55.4104 227.6C55.4104 228.315 55.5384 228.917 55.7944 229.408C56.061 229.899 56.413 230.267 56.8504 230.512C57.2877 230.747 57.7677 230.864 58.2904 230.864ZM75.2448 223.072C75.9274 223.072 76.5354 223.216 77.0688 223.504C77.6021 223.781 78.0234 224.203 78.3328 224.768C78.6421 225.333 78.7968 226.021 78.7968 226.832V232H77.3568V227.04C77.3568 226.165 77.1381 225.499 76.7008 225.04C76.2741 224.571 75.6928 224.336 74.9568 224.336C74.1994 224.336 73.5968 224.581 73.1488 225.072C72.7008 225.552 72.4768 226.251 72.4768 227.168V232H71.0368V227.04C71.0368 226.165 70.8181 225.499 70.3808 225.04C69.9541 224.571 69.3728 224.336 68.6368 224.336C67.8794 224.336 67.2768 224.581 66.8288 225.072C66.3808 225.552 66.1568 226.251 66.1568 227.168V232H64.7008V223.232H66.1568V224.496C66.4448 224.037 66.8288 223.685 67.3088 223.44C67.7994 223.195 68.3381 223.072 68.9248 223.072C69.6608 223.072 70.3114 223.237 70.8768 223.568C71.4421 223.899 71.8634 224.384 72.1408 225.024C72.3861 224.405 72.7914 223.925 73.3568 223.584C73.9221 223.243 74.5514 223.072 75.2448 223.072ZM93.4508 227.28C93.4508 227.557 93.4348 227.851 93.4028 228.16H86.3948C86.4481 229.024 86.7414 229.701 87.2748 230.192C87.8188 230.672 88.4748 230.912 89.2428 230.912C89.8721 230.912 90.3948 230.768 90.8108 230.48C91.2374 230.181 91.5361 229.787 91.7068 229.296H93.2748C93.0401 230.139 92.5708 230.827 91.8668 231.36C91.1628 231.883 90.2881 232.144 89.2428 232.144C88.4108 232.144 87.6641 231.957 87.0028 231.584C86.3521 231.211 85.8401 230.683 85.4668 230C85.0934 229.307 84.9068 228.507 84.9068 227.6C84.9068 226.693 85.0881 225.899 85.4508 225.216C85.8134 224.533 86.3201 224.011 86.9708 223.648C87.6321 223.275 88.3894 223.088 89.2428 223.088C90.0748 223.088 90.8108 223.269 91.4508 223.632C92.0908 223.995 92.5814 224.496 92.9228 225.136C93.2748 225.765 93.4508 226.48 93.4508 227.28ZM91.9468 226.976C91.9468 226.421 91.8241 225.947 91.5788 225.552C91.3334 225.147 90.9974 224.843 90.5708 224.64C90.1548 224.427 89.6908 224.32 89.1788 224.32C88.4428 224.32 87.8134 224.555 87.2908 225.024C86.7788 225.493 86.4854 226.144 86.4108 226.976H91.9468ZM99.9486 232L97.8686 228.736L95.8686 232H94.3486L97.1806 227.648L94.3486 223.232H95.9966L98.0766 226.48L100.061 223.232H101.581L98.7646 227.568L101.597 232H99.9486ZM102.485 227.6C102.485 226.693 102.666 225.904 103.029 225.232C103.392 224.549 103.893 224.021 104.533 223.648C105.184 223.275 105.925 223.088 106.757 223.088C107.834 223.088 108.72 223.349 109.413 223.872C110.117 224.395 110.581 225.12 110.805 226.048H109.237C109.088 225.515 108.794 225.093 108.357 224.784C107.93 224.475 107.397 224.32 106.757 224.32C105.925 224.32 105.253 224.608 104.741 225.184C104.229 225.749 103.973 226.555 103.973 227.6C103.973 228.656 104.229 229.472 104.741 230.048C105.253 230.624 105.925 230.912 106.757 230.912C107.397 230.912 107.93 230.763 108.357 230.464C108.784 230.165 109.077 229.739 109.237 229.184H110.805C110.57 230.08 110.101 230.8 109.397 231.344C108.693 231.877 107.813 232.144 106.757 232.144C105.925 232.144 105.184 231.957 104.533 231.584C103.893 231.211 103.392 230.683 103.029 230C102.666 229.317 102.485 228.517 102.485 227.6ZM114.204 220.16V232H112.748V220.16H114.204ZM124.461 223.232V232H123.005V230.704C122.728 231.152 122.338 231.504 121.837 231.76C121.346 232.005 120.802 232.128 120.205 232.128C119.522 232.128 118.909 231.989 118.365 231.712C117.821 231.424 117.389 230.997 117.069 230.432C116.76 229.867 116.605 229.179 116.605 228.368V223.232H118.045V228.176C118.045 229.04 118.264 229.707 118.701 230.176C119.138 230.635 119.736 230.864 120.493 230.864C121.272 230.864 121.885 230.624 122.333 230.144C122.781 229.664 123.005 228.965 123.005 228.048V223.232H124.461ZM130.024 232.144C129.352 232.144 128.749 232.032 128.216 231.808C127.682 231.573 127.261 231.253 126.952 230.848C126.642 230.432 126.472 229.957 126.44 229.424H127.944C127.986 229.861 128.189 230.219 128.552 230.496C128.925 230.773 129.41 230.912 130.008 230.912C130.562 230.912 131 230.789 131.32 230.544C131.64 230.299 131.8 229.989 131.8 229.616C131.8 229.232 131.629 228.949 131.288 228.768C130.946 228.576 130.418 228.389 129.704 228.208C129.053 228.037 128.52 227.867 128.104 227.696C127.698 227.515 127.346 227.253 127.048 226.912C126.76 226.56 126.616 226.101 126.616 225.536C126.616 225.088 126.749 224.677 127.016 224.304C127.282 223.931 127.661 223.637 128.152 223.424C128.642 223.2 129.202 223.088 129.832 223.088C130.802 223.088 131.586 223.333 132.184 223.824C132.781 224.315 133.101 224.987 133.144 225.84H131.688C131.656 225.381 131.469 225.013 131.128 224.736C130.797 224.459 130.349 224.32 129.784 224.32C129.261 224.32 128.845 224.432 128.536 224.656C128.226 224.88 128.072 225.173 128.072 225.536C128.072 225.824 128.162 226.064 128.344 226.256C128.536 226.437 128.77 226.587 129.048 226.704C129.336 226.811 129.73 226.933 130.232 227.072C130.861 227.243 131.373 227.413 131.768 227.584C132.162 227.744 132.498 227.989 132.776 228.32C133.064 228.651 133.213 229.083 133.224 229.616C133.224 230.096 133.09 230.528 132.824 230.912C132.557 231.296 132.178 231.6 131.688 231.824C131.208 232.037 130.653 232.144 130.024 232.144ZM136.031 221.808C135.754 221.808 135.519 221.712 135.327 221.52C135.135 221.328 135.039 221.093 135.039 220.816C135.039 220.539 135.135 220.304 135.327 220.112C135.519 219.92 135.754 219.824 136.031 219.824C136.298 219.824 136.522 219.92 136.703 220.112C136.895 220.304 136.991 220.539 136.991 220.816C136.991 221.093 136.895 221.328 136.703 221.52C136.522 221.712 136.298 221.808 136.031 221.808ZM136.735 223.232V232H135.279V223.232H136.735ZM142.48 230.656L145.2 223.232H146.752L143.312 232H141.616L138.176 223.232H139.744L142.48 230.656ZM156.185 227.28C156.185 227.557 156.169 227.851 156.137 228.16H149.129C149.182 229.024 149.476 229.701 150.009 230.192C150.553 230.672 151.209 230.912 151.977 230.912C152.606 230.912 153.129 230.768 153.545 230.48C153.972 230.181 154.27 229.787 154.441 229.296H156.009C155.774 230.139 155.305 230.827 154.601 231.36C153.897 231.883 153.022 232.144 151.977 232.144C151.145 232.144 150.398 231.957 149.737 231.584C149.086 231.211 148.574 230.683 148.201 230C147.828 229.307 147.641 228.507 147.641 227.6C147.641 226.693 147.822 225.899 148.185 225.216C148.548 224.533 149.054 224.011 149.705 223.648C150.366 223.275 151.124 223.088 151.977 223.088C152.809 223.088 153.545 223.269 154.185 223.632C154.825 223.995 155.316 224.496 155.657 225.136C156.009 225.765 156.185 226.48 156.185 227.28ZM154.681 226.976C154.681 226.421 154.558 225.947 154.313 225.552C154.068 225.147 153.732 224.843 153.305 224.64C152.889 224.427 152.425 224.32 151.913 224.32C151.177 224.32 150.548 224.555 150.025 225.024C149.513 225.493 149.22 226.144 149.145 226.976H154.681ZM161.829 227.584C161.829 226.688 162.01 225.904 162.373 225.232C162.735 224.549 163.231 224.021 163.861 223.648C164.501 223.275 165.215 223.088 166.005 223.088C166.687 223.088 167.322 223.248 167.909 223.568C168.495 223.877 168.943 224.288 169.253 224.8V220.16H170.725V232H169.253V230.352C168.965 230.875 168.538 231.307 167.973 231.648C167.407 231.979 166.746 232.144 165.989 232.144C165.21 232.144 164.501 231.952 163.861 231.568C163.231 231.184 162.735 230.645 162.373 229.952C162.01 229.259 161.829 228.469 161.829 227.584ZM169.253 227.6C169.253 226.939 169.119 226.363 168.853 225.872C168.586 225.381 168.223 225.008 167.765 224.752C167.317 224.485 166.821 224.352 166.277 224.352C165.733 224.352 165.237 224.48 164.789 224.736C164.341 224.992 163.983 225.365 163.717 225.856C163.45 226.347 163.317 226.923 163.317 227.584C163.317 228.256 163.45 228.843 163.717 229.344C163.983 229.835 164.341 230.213 164.789 230.48C165.237 230.736 165.733 230.864 166.277 230.864C166.821 230.864 167.317 230.736 167.765 230.48C168.223 230.213 168.586 229.835 168.853 229.344C169.119 228.843 169.253 228.261 169.253 227.6ZM181.185 227.28C181.185 227.557 181.169 227.851 181.137 228.16H174.129C174.182 229.024 174.476 229.701 175.009 230.192C175.553 230.672 176.209 230.912 176.977 230.912C177.606 230.912 178.129 230.768 178.545 230.48C178.972 230.181 179.27 229.787 179.441 229.296H181.009C180.774 230.139 180.305 230.827 179.601 231.36C178.897 231.883 178.022 232.144 176.977 232.144C176.145 232.144 175.398 231.957 174.737 231.584C174.086 231.211 173.574 230.683 173.201 230C172.828 229.307 172.641 228.507 172.641 227.6C172.641 226.693 172.822 225.899 173.185 225.216C173.548 224.533 174.054 224.011 174.705 223.648C175.366 223.275 176.124 223.088 176.977 223.088C177.809 223.088 178.545 223.269 179.185 223.632C179.825 223.995 180.316 224.496 180.657 225.136C181.009 225.765 181.185 226.48 181.185 227.28ZM179.681 226.976C179.681 226.421 179.558 225.947 179.313 225.552C179.068 225.147 178.732 224.843 178.305 224.64C177.889 224.427 177.425 224.32 176.913 224.32C176.177 224.32 175.548 224.555 175.025 225.024C174.513 225.493 174.22 226.144 174.145 226.976H179.681ZM182.563 227.584C182.563 226.688 182.744 225.904 183.107 225.232C183.47 224.549 183.966 224.021 184.595 223.648C185.235 223.275 185.944 223.088 186.723 223.088C187.491 223.088 188.158 223.253 188.723 223.584C189.288 223.915 189.71 224.331 189.987 224.832V223.232H191.459V232H189.987V230.368C189.699 230.88 189.267 231.307 188.691 231.648C188.126 231.979 187.464 232.144 186.707 232.144C185.928 232.144 185.224 231.952 184.595 231.568C183.966 231.184 183.47 230.645 183.107 229.952C182.744 229.259 182.563 228.469 182.563 227.584ZM189.987 227.6C189.987 226.939 189.854 226.363 189.587 225.872C189.32 225.381 188.958 225.008 188.499 224.752C188.051 224.485 187.555 224.352 187.011 224.352C186.467 224.352 185.971 224.48 185.523 224.736C185.075 224.992 184.718 225.365 184.451 225.856C184.184 226.347 184.051 226.923 184.051 227.584C184.051 228.256 184.184 228.843 184.451 229.344C184.718 229.835 185.075 230.213 185.523 230.48C185.971 230.736 186.467 230.864 187.011 230.864C187.555 230.864 188.051 230.736 188.499 230.48C188.958 230.213 189.32 229.835 189.587 229.344C189.854 228.843 189.987 228.261 189.987 227.6ZM195.376 220.16V232H193.92V220.16H195.376ZM200.961 232.144C200.289 232.144 199.686 232.032 199.153 231.808C198.62 231.573 198.198 231.253 197.889 230.848C197.58 230.432 197.409 229.957 197.377 229.424H198.881C198.924 229.861 199.126 230.219 199.489 230.496C199.862 230.773 200.348 230.912 200.945 230.912C201.5 230.912 201.937 230.789 202.257 230.544C202.577 230.299 202.737 229.989 202.737 229.616C202.737 229.232 202.566 228.949 202.225 228.768C201.884 228.576 201.356 228.389 200.641 228.208C199.99 228.037 199.457 227.867 199.041 227.696C198.636 227.515 198.284 227.253 197.985 226.912C197.697 226.56 197.553 226.101 197.553 225.536C197.553 225.088 197.686 224.677 197.953 224.304C198.22 223.931 198.598 223.637 199.089 223.424C199.58 223.2 200.14 223.088 200.769 223.088C201.74 223.088 202.524 223.333 203.121 223.824C203.718 224.315 204.038 224.987 204.081 225.84H202.625C202.593 225.381 202.406 225.013 202.065 224.736C201.734 224.459 201.286 224.32 200.721 224.32C200.198 224.32 199.782 224.432 199.473 224.656C199.164 224.88 199.009 225.173 199.009 225.536C199.009 225.824 199.1 226.064 199.281 226.256C199.473 226.437 199.708 226.587 199.985 226.704C200.273 226.811 200.668 226.933 201.169 227.072C201.798 227.243 202.31 227.413 202.705 227.584C203.1 227.744 203.436 227.989 203.713 228.32C204.001 228.651 204.15 229.083 204.161 229.616C204.161 230.096 204.028 230.528 203.761 230.912C203.494 231.296 203.116 231.6 202.625 231.824C202.145 232.037 201.59 232.144 200.961 232.144ZM219.042 232L217.586 230.528C217.042 231.093 216.461 231.515 215.842 231.792C215.223 232.059 214.525 232.192 213.746 232.192C212.978 232.192 212.295 232.053 211.698 231.776C211.111 231.499 210.653 231.104 210.322 230.592C210.002 230.08 209.842 229.483 209.842 228.8C209.842 228.021 210.061 227.339 210.498 226.752C210.946 226.155 211.602 225.685 212.466 225.344C212.125 224.939 211.879 224.565 211.73 224.224C211.581 223.883 211.506 223.509 211.506 223.104C211.506 222.635 211.623 222.213 211.858 221.84C212.103 221.456 212.45 221.157 212.898 220.944C213.346 220.731 213.863 220.624 214.45 220.624C215.026 220.624 215.527 220.736 215.954 220.96C216.381 221.184 216.701 221.499 216.914 221.904C217.127 222.299 217.223 222.741 217.202 223.232H215.746C215.757 222.795 215.634 222.453 215.378 222.208C215.122 221.952 214.791 221.824 214.386 221.824C213.959 221.824 213.613 221.947 213.346 222.192C213.09 222.427 212.962 222.731 212.962 223.104C212.962 223.424 213.047 223.733 213.218 224.032C213.399 224.331 213.698 224.699 214.114 225.136L217.442 228.48L217.73 228.032L218.818 226.208H220.386L219.074 228.48C218.893 228.8 218.679 229.136 218.434 229.488L220.946 232H219.042ZM213.746 230.944C214.322 230.944 214.839 230.832 215.298 230.608C215.767 230.384 216.21 230.037 216.626 229.568L213.346 226.272C211.981 226.795 211.298 227.621 211.298 228.752C211.298 229.381 211.522 229.904 211.97 230.32C212.429 230.736 213.021 230.944 213.746 230.944ZM228.032 224.848C228.32 224.347 228.746 223.931 229.312 223.6C229.888 223.259 230.554 223.088 231.312 223.088C232.09 223.088 232.794 223.275 233.424 223.648C234.064 224.021 234.565 224.549 234.928 225.232C235.29 225.904 235.472 226.688 235.472 227.584C235.472 228.469 235.29 229.259 234.928 229.952C234.565 230.645 234.064 231.184 233.424 231.568C232.794 231.952 232.09 232.144 231.312 232.144C230.565 232.144 229.904 231.979 229.328 231.648C228.762 231.307 228.33 230.885 228.032 230.384V236.16H226.576V223.232H228.032V224.848ZM233.984 227.584C233.984 226.923 233.85 226.347 233.584 225.856C233.317 225.365 232.954 224.992 232.496 224.736C232.048 224.48 231.552 224.352 231.008 224.352C230.474 224.352 229.978 224.485 229.52 224.752C229.072 225.008 228.709 225.387 228.432 225.888C228.165 226.379 228.032 226.949 228.032 227.6C228.032 228.261 228.165 228.843 228.432 229.344C228.709 229.835 229.072 230.213 229.52 230.48C229.978 230.736 230.474 230.864 231.008 230.864C231.552 230.864 232.048 230.736 232.496 230.48C232.954 230.213 233.317 229.835 233.584 229.344C233.85 228.843 233.984 228.256 233.984 227.584ZM238.844 224.656C239.1 224.155 239.463 223.765 239.932 223.488C240.412 223.211 240.994 223.072 241.676 223.072V224.576H241.292C239.66 224.576 238.844 225.461 238.844 227.232V232H237.388V223.232H238.844V224.656ZM244.109 221.808C243.832 221.808 243.597 221.712 243.405 221.52C243.213 221.328 243.117 221.093 243.117 220.816C243.117 220.539 243.213 220.304 243.405 220.112C243.597 219.92 243.832 219.824 244.109 219.824C244.376 219.824 244.6 219.92 244.781 220.112C244.973 220.304 245.069 220.539 245.069 220.816C245.069 221.093 244.973 221.328 244.781 221.52C244.6 221.712 244.376 221.808 244.109 221.808ZM244.813 223.232V232H243.357V223.232H244.813ZM246.751 227.6C246.751 226.693 246.932 225.904 247.295 225.232C247.657 224.549 248.159 224.021 248.799 223.648C249.449 223.275 250.191 223.088 251.023 223.088C252.1 223.088 252.985 223.349 253.679 223.872C254.383 224.395 254.847 225.12 255.071 226.048H253.503C253.353 225.515 253.06 225.093 252.623 224.784C252.196 224.475 251.663 224.32 251.023 224.32C250.191 224.32 249.519 224.608 249.007 225.184C248.495 225.749 248.239 226.555 248.239 227.6C248.239 228.656 248.495 229.472 249.007 230.048C249.519 230.624 250.191 230.912 251.023 230.912C251.663 230.912 252.196 230.763 252.623 230.464C253.049 230.165 253.343 229.739 253.503 229.184H255.071C254.836 230.08 254.367 230.8 253.663 231.344C252.959 231.877 252.079 232.144 251.023 232.144C250.191 232.144 249.449 231.957 248.799 231.584C248.159 231.211 247.657 230.683 247.295 230C246.932 229.317 246.751 228.517 246.751 227.6ZM257.765 221.808C257.488 221.808 257.253 221.712 257.061 221.52C256.869 221.328 256.773 221.093 256.773 220.816C256.773 220.539 256.869 220.304 257.061 220.112C257.253 219.92 257.488 219.824 257.765 219.824C258.032 219.824 258.256 219.92 258.437 220.112C258.629 220.304 258.725 220.539 258.725 220.816C258.725 221.093 258.629 221.328 258.437 221.52C258.256 221.712 258.032 221.808 257.765 221.808ZM258.469 223.232V232H257.013V223.232H258.469ZM265.223 223.072C266.289 223.072 267.153 223.397 267.815 224.048C268.476 224.688 268.807 225.616 268.807 226.832V232H267.367V227.04C267.367 226.165 267.148 225.499 266.711 225.04C266.273 224.571 265.676 224.336 264.919 224.336C264.151 224.336 263.537 224.576 263.079 225.056C262.631 225.536 262.407 226.235 262.407 227.152V232H260.951V223.232H262.407V224.48C262.695 224.032 263.084 223.685 263.575 223.44C264.076 223.195 264.625 223.072 265.223 223.072ZM274.801 223.088C275.558 223.088 276.22 223.253 276.785 223.584C277.361 223.915 277.788 224.331 278.065 224.832V223.232H279.537V232.192C279.537 232.992 279.366 233.701 279.025 234.32C278.684 234.949 278.193 235.44 277.553 235.792C276.924 236.144 276.188 236.32 275.345 236.32C274.193 236.32 273.233 236.048 272.465 235.504C271.697 234.96 271.244 234.219 271.105 233.28H272.545C272.705 233.813 273.036 234.24 273.537 234.56C274.038 234.891 274.641 235.056 275.345 235.056C276.145 235.056 276.796 234.805 277.297 234.304C277.809 233.803 278.065 233.099 278.065 232.192V230.352C277.777 230.864 277.35 231.291 276.785 231.632C276.22 231.973 275.558 232.144 274.801 232.144C274.022 232.144 273.313 231.952 272.673 231.568C272.044 231.184 271.548 230.645 271.185 229.952C270.822 229.259 270.641 228.469 270.641 227.584C270.641 226.688 270.822 225.904 271.185 225.232C271.548 224.549 272.044 224.021 272.673 223.648C273.313 223.275 274.022 223.088 274.801 223.088ZM278.065 227.6C278.065 226.939 277.932 226.363 277.665 225.872C277.398 225.381 277.036 225.008 276.577 224.752C276.129 224.485 275.633 224.352 275.089 224.352C274.545 224.352 274.049 224.48 273.601 224.736C273.153 224.992 272.796 225.365 272.529 225.856C272.262 226.347 272.129 226.923 272.129 227.584C272.129 228.256 272.262 228.843 272.529 229.344C272.796 229.835 273.153 230.213 273.601 230.48C274.049 230.736 274.545 230.864 275.089 230.864C275.633 230.864 276.129 230.736 276.577 230.48C277.036 230.213 277.398 229.835 277.665 229.344C277.932 228.843 278.065 228.261 278.065 227.6Z" fill="#666666"/>
<path d="M67.6963 41.0961C67.5085 41.1618 67.2173 41.3214 67.0577 41.4435C66.9074 41.5656 64.0432 45.6789 60.6999 50.5904L54.6239 59.512L52.9053 59.5402L51.1868 59.5589L51.2337 59.2584C51.2619 59.0894 51.4403 57.4084 51.6187 55.5208C51.7972 53.6332 51.9662 51.9146 51.9944 51.6986C52.0507 51.3136 52.0789 51.2854 52.7175 50.9473C53.3561 50.6092 54.2576 49.8392 54.6333 49.2945L54.8211 49.0221L57.5351 49.3039C59.3758 49.4823 60.3431 49.548 60.5121 49.4917C61.038 49.3133 61.0756 48.5056 60.5685 48.2896C60.4464 48.2333 59.1128 48.0736 57.5915 47.9234C54.53 47.6323 54.2952 47.6416 53.8444 48.1394C53.6942 48.299 53.3561 48.6653 53.0838 48.9564C52.802 49.2663 52.3982 49.5856 52.0695 49.7453C51.2337 50.1491 50.9426 50.4026 50.7923 50.844C50.6984 51.0882 50.4824 52.9288 50.2383 55.3987L49.8344 59.5589H49.3931H48.9423L48.9892 59.2021C49.0174 59.0143 49.3179 56.0748 49.6466 52.6753C49.9847 49.2663 50.304 46.4114 50.351 46.3081C50.4918 46.0452 50.7548 45.9419 51.2619 45.9419C51.5061 45.9419 54.0135 46.1766 56.8214 46.4584C61.3479 46.9091 61.9677 46.9467 62.1931 46.834C62.6439 46.5992 62.6251 45.8573 62.1649 45.6601C62.0429 45.6132 60.39 45.4254 58.4742 45.2375C56.5679 45.0497 54.1262 44.8149 53.0462 44.7022C51.9568 44.5989 50.9144 44.5426 50.689 44.5708C49.8344 44.7022 49.1019 45.4347 48.9329 46.3457C48.8766 46.618 48.6136 49.0973 48.3413 51.8582L47.8529 56.8825L46.6696 56.9388C45.6554 56.9764 45.4206 57.0233 45.0356 57.2206C44.2374 57.6338 43.7866 58.4132 43.7772 59.4181C43.7678 59.8688 43.749 59.897 43.3264 60.1694C43.0916 60.3196 42.7536 60.6295 42.5845 60.8549C41.9553 61.6813 41.9835 60.9582 42.0117 74.5002L42.0398 86.7461L42.2652 87.2345C42.5376 87.8543 43.3076 88.5774 43.9181 88.8216C44.3782 89 44.8666 89 64.2028 89H84.018L84.5063 88.7746C85.0886 88.5117 85.7835 87.8073 86.0653 87.1875C86.2625 86.7649 86.2719 86.6147 86.3 83.1494L86.3282 79.562H86.6757C87.4833 79.562 88.197 79.1581 88.4412 78.5571C88.5445 78.3129 88.5727 77.4302 88.5727 74.3029C88.5727 70.5559 88.5633 70.3305 88.3849 69.983C88.1031 69.429 87.7087 69.1942 86.9574 69.1566L86.3188 69.1191V65.7195C86.3188 62.8646 86.2906 62.2354 86.1686 61.8128C85.9995 61.2493 85.6051 60.6107 85.2388 60.329C85.0229 60.16 85.0041 60.0754 85.0041 59.4462C85.0041 58.6104 84.7223 57.9437 84.1777 57.4929C83.7832 57.1736 83.0883 56.9294 82.5436 56.9294H82.1774L83.2761 55.3236C83.8865 54.4314 84.4312 53.5205 84.5063 53.2763C84.7317 52.525 84.4876 51.6329 83.9053 51.0976C83.7644 50.9661 82.5248 50.0927 81.1537 49.163C79.7826 48.2333 76.6366 46.0827 74.1574 44.3923C71.6781 42.7019 69.5276 41.2557 69.3773 41.1806C68.9923 40.9834 68.1283 40.9364 67.6963 41.0961ZM68.8608 42.4765C69.4336 42.7771 82.7408 51.9146 82.9662 52.1494C83.3794 52.5908 83.3137 52.8161 82.4027 54.1685C81.9426 54.8352 80.9471 56.319 80.1677 57.4647L78.759 59.5495L78.2143 59.5589H77.679L78.7778 57.9531C79.3788 57.0609 79.9235 56.1781 79.9986 55.9715C80.1395 55.5489 80.0831 55.2296 79.6887 54.2999C79.4727 53.7834 79.4258 53.5393 79.407 52.6753C79.3882 51.8395 79.3412 51.6047 79.1816 51.3511C79.0501 51.1257 77.8856 50.2805 75.181 48.4399C73.0868 47.0124 71.2743 45.801 71.1428 45.754C70.7296 45.5944 70.2976 45.6507 69.5369 45.9606C68.8984 46.2236 68.6824 46.2612 67.7996 46.2799C66.6163 46.3081 66.2782 46.4302 65.8744 47.0031C65.7148 47.219 63.7614 50.0833 61.5263 53.3608C59.2913 56.6383 57.4131 59.3805 57.3567 59.4462C57.2816 59.5214 57.0656 59.5589 56.7557 59.5402L56.2861 59.512L62.0053 51.107C65.1513 46.4865 67.8184 42.6268 67.9217 42.5329C68.1471 42.3545 68.5791 42.3263 68.8608 42.4765ZM74.4391 49.5856L78.0077 52.0179L78.0641 53.0415C78.111 53.8398 78.1767 54.206 78.374 54.7225C78.5148 55.0794 78.6369 55.4456 78.6463 55.5208C78.6557 55.6053 78.0734 56.5444 77.3503 57.615L76.0356 59.5495L74.8617 59.5589H73.6784L73.5751 58.9297C73.4249 58.0658 72.8144 56.8825 72.1758 56.1875C71.4997 55.455 70.7766 54.9855 69.8093 54.6474C67.8466 53.9712 65.4988 54.5253 64.0526 56.0091C63.2449 56.8355 62.6345 58.0094 62.4842 59.0236L62.4185 59.512L60.6999 59.5402C59.3194 59.5589 58.9908 59.5402 59.0471 59.4462C59.0941 59.3805 60.9159 56.6947 63.1041 53.4735L67.0859 47.6323H67.9686C68.6448 47.6323 69.011 47.5759 69.5745 47.3975C69.9783 47.266 70.3728 47.1251 70.4385 47.0782C70.523 47.0218 70.6451 47.0218 70.7202 47.0688C70.8047 47.1157 72.4764 48.2427 74.4391 49.5856ZM69.0862 55.8495C69.8469 56.0561 70.4761 56.4129 71.0489 56.9858C71.6406 57.5774 71.9974 58.2066 72.1758 58.9767L72.3073 59.5589H68.0438H63.7708L63.8366 59.2021C64.2685 56.8261 66.7384 55.239 69.0862 55.8495ZM47.6839 58.6292C47.6557 58.7889 47.6275 59.0706 47.6275 59.2396V59.5589H46.4067H45.1859V59.2209C45.1859 58.9767 45.261 58.817 45.4582 58.6104C45.7305 58.3475 45.7587 58.3381 46.7354 58.3381H47.7496L47.6839 58.6292ZM83.2479 58.5353C83.5203 58.7419 83.7738 59.4275 83.633 59.5402C83.586 59.5777 82.8441 59.5965 81.9801 59.5777L80.4118 59.5495L80.8063 58.9485L81.2007 58.3381H82.1022C82.8723 58.3381 83.0413 58.3663 83.2479 58.5353ZM84.2246 61.3057C84.8162 61.7752 84.9102 62.0664 84.9102 63.3811V64.5362H64.1559H43.4015V63.3623C43.4015 62.5265 43.4391 62.1039 43.533 61.9255C43.7021 61.5968 44.1341 61.193 44.4346 61.0709C44.5848 61.0146 51.3934 60.9864 64.2685 60.9958L83.8584 61.0146L84.2246 61.3057ZM84.9102 67.5414V69.1378H81.3697C78.5336 69.1378 77.6978 69.166 77.2189 69.2787C75.5754 69.6731 74.1668 70.9315 73.5469 72.5656C73.284 73.2699 73.1901 74.7068 73.3591 75.4393C73.7817 77.2611 75.1716 78.7449 77.0216 79.3366C77.463 79.4774 78.0453 79.5056 81.2289 79.5432L84.9102 79.5807V81.1678V82.7549H68.025C51.2149 82.7549 51.1304 82.7549 50.9614 82.9427C50.7454 83.1869 50.7454 83.6377 50.9614 83.8819C51.1304 84.0697 51.2149 84.0697 68.025 84.0697H84.9102V85.2623C84.9102 86.3329 84.882 86.502 84.6942 86.84C84.5721 87.0467 84.3185 87.3002 84.1119 87.4223L83.7363 87.6383H64.1746C42.3779 87.6383 44.2374 87.6946 43.7021 86.9997C43.4579 86.6804 43.4485 86.6147 43.4203 85.3656L43.3828 84.0697H45.3643C47.2237 84.0697 47.3552 84.0603 47.5336 83.8819C47.6369 83.7786 47.7214 83.572 47.7214 83.4123C47.7214 83.2527 47.6369 83.0461 47.5336 82.9427C47.3552 82.7643 47.2237 82.7549 45.3737 82.7549H43.4015V74.3499V65.9449H64.1559H84.9102V67.5414ZM87.1452 74.3217L87.164 78.1533H82.5906C79.9047 78.1533 77.8387 78.1063 77.6039 78.0594C76.1295 77.7119 74.9462 76.4629 74.6645 74.9509C74.2888 72.8943 75.8102 70.8282 77.895 70.5559C78.2143 70.5089 80.4212 70.4808 82.7972 70.4902L87.1171 70.4996L87.1452 74.3217Z" fill="#4086F4"/>
<path d="M77.7731 71.6641C76.5898 72.0303 75.7071 73.3357 75.8292 74.5377C75.9794 76.0309 77.1063 77.0639 78.562 77.0639C80.9849 77.0733 82.2151 74.3217 80.6374 72.4435C80.5059 72.2839 80.1397 72.0209 79.8204 71.8707C79.3414 71.6265 79.1348 71.5795 78.6277 71.5889C78.2896 71.5889 77.9046 71.6265 77.7731 71.6641ZM79.1254 73.0258C80.1115 73.439 80.2618 74.8195 79.3884 75.4675C79.0315 75.7398 78.2708 75.768 77.8858 75.5332C76.9373 74.9322 76.9937 73.5235 77.9985 73.0727C78.4587 72.8661 78.7122 72.8567 79.1254 73.0258Z" fill="#4086F4"/>
</g>
<defs>
<filter id="filter0_d_0_1" x="-456" y="-47" width="514" height="422" filterUnits="userSpaceOnUse" color-interpolation-filters="sRGB">
<feFlood flood-opacity="0" result="BackgroundImageFix"/>
<feColorMatrix in="SourceAlpha" type="matrix" values="0 0 0 0 0 0 0 0 0 0 0 0 0 0 0 0 0 0 127 0" result="hardAlpha"/>
<feOffset dx="14" dy="24"/>
<feGaussianBlur stdDeviation="36"/>
<feComposite in2="hardAlpha" operator="out"/>
<feColorMatrix type="matrix" values="0 0 0 0 0.4 0 0 0 0 0.4 0 0 0 0 0.4 0 0 0 0.1 0"/>
<feBlend mode="normal" in2="BackgroundImageFix" result="effect1_dropShadow_0_1"/>
<feBlend mode="normal" in="SourceGraphic" in2="effect1_dropShadow_0_1" result="shape"/>
</filter>
<clipPath id="clip0_0_1">
<rect width="1920" height="5875" fill="white" transform="translate(-772 -1324)"/>
</clipPath>
</defs>
</svg>
